<?xml version="1.0" encoding="UTF-8"?>
<svg xmlns="http://www.w3.org/2000/svg" width="528.06" height="200.27" version="1.1" viewBox="0 0 528.06 200.27" xml:space="preserve">
  <defs>
    <linearGradient id="beyondBg" x2="0" y2="400" gradientTransform="matrix(1.3191 0 0 .5 .41379 .26589)" gradientUnits="userSpaceOnUse">
      <stop stop-color="#E8F6FD" offset="0"/>
      <stop stop-color="#FFF9E8" offset="1"/>
    </linearGradient>
  </defs>
  <rect x=".41379" y=".26589" width="527.64" height="200" rx="10.553" fill="url(#beyondBg)" stroke-width=".81213"/>
  <circle cx="265.91" cy="112.27" r="72" fill="none" opacity=".5" stroke="#d4b96a" stroke-dasharray="8, 5" stroke-width="1.5">
    <animateTransform attributeName="transform" dur="60s" from="0 265.906 112.2615" repeatCount="indefinite" to="360 265.906 112.2615" type="rotate"/>
  </circle>
  <circle cx="265.91" cy="112.27" r="50" fill="#fff176" opacity=".06">
    <animate attributeName="r" dur="4s" repeatCount="indefinite" values="50;55;50"/>
    <animate attributeName="opacity" dur="4s" repeatCount="indefinite" values="0.06;0.1;0.06"/>
  </circle>
  <g transform="translate(265.91 22.266)">
    <circle r="18" fill="#fff" opacity=".9" stroke="#7b1fa2" stroke-width="1.5">
      <animate attributeName="r" dur="3s" repeatCount="indefinite" values="18;19.5;18"/>
    </circle>
    <path d="m-4.308 12.299c-0.82221-0.19303-1.9202-0.96145-2.3499-1.6446-0.048447-0.0771-0.3284-0.26168-0.62202-0.41018-0.29362-0.14851-0.65016-0.37244-0.7923-0.49763-0.79697-0.70192-1.3431-1.8911-1.3431-2.9245 0-0.42351-0.03351-0.52772-0.18517-0.57586-0.28047-0.089019-0.97307-0.88555-1.1834-1.3609-0.43436-0.98195-0.42421-2.1109 0.02697-2.9952l0.19601-0.38421-0.205-0.44611c-0.55661-1.2113-0.41249-2.6002 0.37272-3.5916 0.26858-0.3391 0.28011-0.38812 0.18216-0.77401-0.12976-0.51121 0.0065-1.4329 0.30284-2.0533 0.36374-0.76072 1.0606-1.3918 1.8695-1.693l0.45451-0.16925-0.054665-0.65293c-0.084646-1.0096 0.29202-1.8792 1.0219-2.3591 0.19596-0.12885 0.68389-0.45439 1.0843-0.72344 1.4789-0.99374 2.5851-1.4229 3.6884-1.4309 0.6261-0.0045 0.79198 0.03236 1.1853 0.26356 0.2515 0.14784 0.50265 0.3444 0.55812 0.43679 0.095603 0.15926 0.10607 0.15926 0.20166 0 0.055473-0.09239 0.30662-0.28894 0.55812-0.43679 0.39329-0.23119 0.55917-0.26807 1.1853-0.26356 1.1033 8e-3 2.2096 0.43712 3.6884 1.4309 0.40039 0.26904 0.88831 0.59459 1.0843 0.72344 0.72986 0.47988 1.1065 1.3494 1.0219 2.3591l-0.054746 0.65293 0.45451 0.16925c1.493 0.55594 2.4811 2.2406 2.1699 3.6995-0.09318 0.4369-0.08266 0.48338 0.18626 0.82293 0.78344 0.98918 0.92712 2.3792 0.37102 3.5894l-0.205 0.44611 0.19601 0.38421c0.45115 0.88433 0.46131 2.0132 0.02697 2.9952-0.21028 0.47538-0.90289 1.2719-1.1834 1.3609-0.15167 0.048133-0.18517 0.15235-0.18517 0.57586 0 1.0334-0.54615 2.2226-1.3431 2.9245-0.14214 0.12519-0.49867 0.34913-0.7923 0.49763-0.29362 0.14851-0.57352 0.33309-0.62202 0.41018-0.54051 0.85936-1.8122 1.6199-2.8725 1.7178-0.74518 0.06885-1.6392-0.12822-2.2768-0.5019-0.41252-0.24175-1.1673-0.97678-1.3936-1.3572-0.11464-0.19269-0.11507-0.19269-0.22972 0-0.22583 0.37954-0.98069 1.1152-1.3912 1.3557-0.80115 0.4695-1.9094 0.63964-2.8019 0.43013zm2.1324-1.0029c1.3215-0.59625 2.0339-2.1227 1.6422-3.5187-0.25178-0.89736-0.73351-1.4618-1.6285-1.908-0.61806-0.30819-0.75011-0.41438-0.75011-0.60324 0-0.67972 1.1038-0.37757 2.1111 0.57787l0.41253 0.39129-2.019e-4 -4.9462c-9.69e-5 -4.5153-0.014938-4.9756-0.16986-5.284-0.20517-0.40843-0.72933-0.77845-1.1027-0.77845-0.34781 0-0.53138-0.2945-0.37071-0.59472 0.097444-0.18208 0.16808-0.19964 0.59808-0.14872 0.26817 0.031757 0.58972 0.12467 0.71455 0.20646 0.12483 0.081793 0.25223 0.14872 0.28312 0.14872 0.030845 0 0.043361-1.2636 0.027696-2.8079-0.026969-2.6598-0.039081-2.8224-0.22886-3.0818-0.11022-0.15061-0.36626-0.35621-0.56897-0.45688-0.34894-0.17329-0.40912-0.17505-1.1302-0.03299-0.41889 0.08252-1.1019 0.31501-1.5179 0.51664l-0.75631 0.3666 0.32298 0.09511c0.40831 0.12024 1.2147 0.83885 1.3746 1.225 0.097089 0.23439 0.097275 0.32325 0.00162 0.43933-0.21905 0.26394-0.53879 0.17227-0.80566-0.23099-0.28633-0.43265-0.93452-0.78827-1.4368-0.78827-0.18537 0-0.53158 0.098277-0.76935 0.21839-0.70096 0.35411-1.0702 1.0977-0.92618 1.8654 0.078324 0.4174 0.28559 0.63404 0.60669 0.63404 0.40967 0 1.4386 0.55359 1.8261 0.9825 0.51968 0.57523 0.86675 1.3779 0.87096 2.0144 0.00242 0.3934-0.038354 0.54849-0.16641 0.63042-0.28519 0.18243-0.50047-0.042384-0.58205-0.60781-0.095732-0.66361-0.35782-1.1562-0.85334-1.6039-0.53585-0.48411-0.98744-0.66203-1.6949-0.66778-1.018-0.00828-1.8874 0.52185-2.3229 1.4163-0.26698 0.54839-0.32445 1.0805-0.20665 1.9134 0.07437 0.52567 0.06904 0.54267-0.31369 1.0058-0.48385 0.58553-0.64451 1.1312-0.5778 1.9623 0.04078 0.50772 0.11476 0.72911 0.3676 1.0996 0.41948 0.61471 1.077 1.0557 1.6945 1.1363 0.64158 0.083826 0.82505 0.18907 0.82505 0.4733 0 0.32863-0.25016 0.43013-0.82505 0.33475-0.26692-0.044289-0.53157-0.083121-0.58809-0.086303-0.05652-0.00315-0.35196-0.15583-0.6565-0.33923l-0.55373-0.33344-0.14428 0.34529c-0.17521 0.41933-0.18695 1.2724-0.02503 1.8148 0.11921 0.39926 0.8017 1.1697 1.3748 1.5519 0.25614 0.17083 0.26882 0.21152 0.2117 0.67945-0.16486 1.3507 0.67756 2.6658 2.0626 3.22 0.21893 0.0876 0.42186 0.23424 0.45093 0.32586 0.081852 0.2579 0.83569 0.97904 1.239 1.1853 0.82955 0.42424 1.7756 0.43947 2.6549 0.04274zm-1.9746-1.6222c-0.066373-0.06636-0.12065-0.24131-0.12065-0.38879 0-0.47119-0.37151-1.2877-0.75162-1.6518-0.45571-0.43663-0.85591-0.64047-1.4955-0.76177-0.74587-0.14145-0.94503-0.38252-0.60056-0.72698 0.098599-0.0986 0.26483-0.14605 0.42786-0.12212 0.25587 0.037555 0.26921 0.018418 0.33081-0.47457 0.13992-1.1199 0.90624-2.1423 1.9711-2.6298 0.66938-0.30646 1.5392-0.35549 1.7062-0.096191 0.18278 0.28385-0.039566 0.48354-0.68487 0.61518-0.73746 0.15043-1.0509 0.31371-1.5053 0.78425-0.41892 0.43377-0.62388 0.87867-0.71247 1.5465-0.062417 0.47072-0.057895 0.48186 0.26142 0.6371 0.56059 0.27257 1.103 0.82012 1.4415 1.4552 0.27056 0.50764 0.32749 0.7205 0.33291 1.2449 0.00646 0.60501-0.00404 0.63385-0.2368 0.66104-0.13384 0.01564-0.29763-0.02585-0.36399-0.092211zm-2.1457-8.1706c-0.27591-0.33245-0.072187-0.54142 0.6719-0.68912 0.40798-0.080987 0.90176-0.47279 1.1402-0.90474l0.22389-0.40554-0.27242-0.054988c-0.53735-0.10846-1.494-0.65819-1.8366-1.0554-0.45627-0.52894-0.66976-0.96084-0.80938-1.6374-0.13171-0.6382-0.077355-0.91083 0.19926-0.99861 0.28658-0.090955 0.45811 0.10841 0.53142 0.61764 0.094691 0.65767 0.26614 1.0163 0.72245 1.5114 0.26913 0.29197 0.58175 0.5053 0.93315 0.63678 0.89917 0.33642 1.6098 0.23764 2.474-0.34389 0.57053-0.38394 0.89366-0.40298 0.94285-0.055553 0.05959 0.42104-0.7632 1.0586-1.6524 1.2803-0.42091 0.10496-0.46671 0.14685-0.6053 0.55359-0.31578 0.92677-1.0779 1.5474-2.0195 1.6446-0.39893 0.041172-0.546 0.018563-0.64351-0.098943zm11.003 9.7958c0.49133-0.22627 1.2649-0.92555 1.3619-1.2311 0.029069-0.09162 0.232-0.23826 0.45093-0.32586 1.385-0.55417 2.2274-1.8693 2.0626-3.22-0.057087-0.46793-0.04441-0.50862 0.2117-0.67945 0.5731-0.38222 1.2556-1.1526 1.3748-1.5519 0.16197-0.54245 0.15023-1.3955-0.02503-1.8148l-0.14428-0.34529-0.55374 0.33344c-0.30454 0.18339-0.59997 0.33604-0.6565 0.33923-0.056522 0.00315-0.32117 0.04202-0.58809 0.086303-0.57489 0.095377-0.82505-0.00614-0.82505-0.33475 0-0.28423 0.18346-0.38947 0.82505-0.4733 0.61751-0.080681 1.275-0.52162 1.6945-1.1363 0.25285-0.37051 0.32685-0.5919 0.36761-1.0996 0.0667-0.83114-0.09396-1.3768-0.57781-1.9623-0.38273-0.46316-0.38803-0.48016-0.31368-1.0058 0.11779-0.83294 0.060317-1.365-0.20665-1.9134-0.43545-0.89442-1.3049-1.4245-2.3229-1.4163-0.70749 0.00573-1.1591 0.18367-1.6949 0.66778-0.49551 0.44767-0.75759 0.94025-0.85334 1.6039-0.081578 0.56543-0.29686 0.79024-0.58204 0.60781-0.12808-0.08193-0.16902-0.23702-0.16642-0.63042 0.00404-0.63646 0.35128-1.4392 0.87096-2.0144 0.38749-0.42891 1.4164-0.9825 1.8261-0.9825 0.67546 0 0.86836-1.1439 0.32964-1.9547-0.25955-0.39061-0.95193-0.76309-1.4185-0.76309-0.5023 0-1.1505 0.35562-1.4368 0.78827-0.26687 0.40326-0.58662 0.49493-0.80567 0.23099-0.096338-0.11608-0.096144-0.20494 0.00162-0.43933 0.15997-0.38619 0.96633-1.1048 1.3746-1.225l0.32295-0.09511-0.75631-0.3666c-0.41597-0.20163-1.099-0.43412-1.5179-0.51664-0.72105-0.14206-0.78123-0.1403-1.1302 0.03299-0.72897 0.36202-0.76556 0.48457-0.79939 2.6776-0.028503 1.8478-0.021075 1.9433 0.14559 1.872 0.91956-0.39289 1.4204-0.40669 1.5361-0.042343 0.088134 0.2777-0.093011 0.45423-0.54436 0.53048-0.49765 0.084076-0.93061 0.45226-1.0624 0.90348-0.071379 0.24434-0.094893 2.6365-0.074528 7.5881l0.029715 7.2313 0.25429 0.54225c0.73293 1.5629 2.4738 2.215 4.0165 1.5045zm-2.366-2.4714c-0.15071-0.15071-0.16634-0.26079-0.10312-0.7266 0.13436-0.99009 0.77026-1.9616 1.6037-2.45 0.23575-0.13816 0.43306-0.30165 0.43847-0.36331 0.083435-0.95113-0.47486-1.9866-1.2974-2.4062-0.21423-0.10929-0.65644-0.25291-0.98269-0.31914-0.52187-0.10595-0.5967-0.14965-0.62237-0.36346-0.049174-0.40994 0.19091-0.51838 0.86867-0.39234 1.5155 0.28183 2.5504 1.3294 2.8188 2.8531 0.090783 0.51538 0.12465 0.57505 0.30032 0.52911 0.23504-0.061464 0.50922 0.067536 0.58978 0.27748 0.087553 0.22817-0.27924 0.53421-0.64156 0.5353-0.43056 0.001292-1.2204 0.39123-1.5961 0.78794-0.36667 0.38723-0.70408 1.0907-0.70707 1.4742-0.0040373 0.56731-0.36356 0.86977-0.66948 0.56384zm3.75-7.7212c-0.74208-0.26485-1.3398-0.86004-1.6168-1.61-0.13774-0.37289-0.20463-0.43738-0.52222-0.50336-0.79315-0.16479-1.7201-0.81122-1.7201-1.1995 0-0.44969 0.31044-0.46346 0.93862-0.041649 0.33912 0.22772 0.76951 0.4216 1.0547 0.47515 0.96487 0.18114 1.9969-0.21519 2.5623-0.98401 0.2918-0.39679 0.38085-0.63388 0.5568-1.4826 0.067261-0.32438 0.12333-0.39321 0.34089-0.41834 0.38551-0.044539 0.48896 0.21849 0.36011 0.91553-0.13149 0.71133-0.37903 1.1984-0.89433 1.7596-0.39043 0.42523-1.3833 0.99465-1.7345 0.99481-0.26901 9.69e-5 -0.27461 0.13513-0.023093 0.55689 0.27688 0.46431 0.70674 0.75722 1.2549 0.85512 0.62205 0.11109 0.7945 0.35189 0.47839 0.66801-0.18402 0.18402-0.54629 0.18906-1.0356 0.014413z" stroke-width=".097065"/>
  </g>
  <g transform="translate(347.91 74.266)">
    <circle r="18" fill="#fff" opacity=".9" stroke="#e65100" stroke-width="1.5">
      <animate attributeName="r" begin="0.5s" dur="3.5s" repeatCount="indefinite" values="18;19.5;18"/>
    </circle>
    <path d="m-7.7342-5.5316 7 11 7-8" fill="none" stroke="#e65100" stroke-linecap="round" stroke-linejoin="round" stroke-width="2"/>
    <g fill="#e65100">
      <polygon transform="matrix(-1.5166,0,0,-1.5166,19.371,-15.648)" points="8 -10 10 -8 6 -5"/>
      <circle cx="-.73422" cy="7.4684" r="1" opacity=".4"/>
      <circle cx="-2.7342" cy="6.4684" r=".6" opacity=".3"/>
    </g>
  </g>
  <g transform="translate(333.91 170.27)">
    <circle r="18" fill="#fff" opacity=".9" stroke="#1976d2" stroke-width="1.5">
      <animate attributeName="r" begin="1s" dur="4s" repeatCount="indefinite" values="18;19.5;18"/>
    </circle>
    <rect x="-12" y="-10" width="16" height="10" rx="3" fill="#1976d2"/>
    <path d="m-8 0 2 4 2-4" fill="#1976d2"/>
    <line x1="-10" x2="-1" y1="-7" y2="-7" opacity=".7" stroke="#fff" stroke-width=".8"/>
    <line x1="-10" x2="-3" y1="-4" y2="-4" opacity=".5" stroke="#fff" stroke-width=".8"/>
    <rect x="-2" width="14" height="9" rx="3" fill="#85c3e8"/>
    <path d="m6 9 2 3 2-3" fill="#85c3e8"/>
    <line x2="10" y1="3" y2="3" opacity=".7" stroke="#fff" stroke-width=".8"/>
    <line x2="7" y1="6" y2="6" opacity=".5" stroke="#fff" stroke-width=".8"/>
  </g>
  <g transform="translate(197.91 170.27)">
    <circle r="18" fill="#fff" opacity=".9" stroke="#4caf50" stroke-width="1.5">
      <animate attributeName="r" begin="1.5s" dur="3.2s" repeatCount="indefinite" values="18;19.5;18"/>
    </circle>
    <g transform="rotate(-45)">
      <rect x="-2" y="-5" width="4" height="18" rx="1" fill="#8b7355"/>
      <path d="m-5-8c0-6 10-6 10 0 0 3-3 4-3 4h-4s-3-1-3-4z" fill="#8b7355"/>
      <rect x="-1" y="-14" width="2" height="6" fill="#fff"/>
    </g>
  </g>
  <g transform="translate(183.91 74.266)">
    <circle r="18" fill="#fff" opacity=".9" stroke="#d4b96a" stroke-width="1.5">
      <animate attributeName="r" begin="0.8s" dur="3.8s" repeatCount="indefinite" values="18;19.5;18"/>
    </circle>
    <g transform="matrix(1.3667,0,0,1.3667,-12.301,-5.2836)">
      <rect width="12" height="9" fill="none" stop-color="#000000" stroke="#dbe6c2" stroke-linecap="round" stroke-linejoin="round" stroke-width=".616" style="paint-order:markers fill stroke"/>
      <rect width="12" height="3" rx="0" fill="#fff"/>
      <rect y="3" width="12" height="3" fill="#1976d2"/>
      <rect y="6" width="12" height="3" rx="0" fill="#e65100" style="paint-order:markers fill stroke"/>
    </g>
    <g transform="matrix(1.3667,0,0,1.3667,-4.1002,-8.0171)">
      <rect width="12" height="9" fill="none" stop-color="#000000" stroke="#dbe6c2" stroke-linecap="round" stroke-linejoin="round" stroke-width=".616" style="paint-order:markers fill stroke"/>
      <rect width="12" height="9" rx=".5" fill="#e65100"/>
      <g fill="#fff">
        <rect width="12" height="1"/>
        <rect y="2" width="12" height="1"/>
        <rect y="4" width="12" height="1"/>
        <rect y="6" width="12" height="1"/>
        <rect y="8" width="12" height="1"/>
      </g>
      <rect width="5" height="4" fill="#1976d2"/>
    </g>
  </g>
  <g transform="matrix(1.7727 0 0 1.7727 -162.27 -77)">
    <g transform="translate(100,55)" fill="#7b1fa2">
      <rect width="80" height="20" rx="10" opacity=".15"/>
      <text x="40" y="12.87175" font-family="sans-serif" font-size="7px" font-weight="600" text-anchor="middle">THINK</text>
    </g>
    <g transform="translate(100,90)" fill="#e65100">
      <rect width="80" height="20" rx="10" opacity=".15"/>
      <text x="40" y="13.171618" font-family="sans-serif" font-size="7px" font-weight="600" text-anchor="middle">BOUNCE BACK</text>
    </g>
    <g transform="translate(100,125)" fill="#1976d2">
      <rect width="80" height="20" rx="10" opacity=".15"/>
      <text x="40" y="13.171618" font-family="sans-serif" font-size="7px" font-weight="600" text-anchor="middle">COMMUNICATE</text>
    </g>
  </g>
  <g transform="matrix(1.7638 0 0 1.7638 -718.17 -76.109)">
    <g transform="translate(620,55)" fill="#4caf50">
      <rect width="80" height="20" rx="10" opacity=".15"/>
      <text x="40" y="12.866053" font-family="sans-serif" font-size="7px" font-weight="600" text-anchor="middle">BUILD</text>
    </g>
    <g transform="translate(620,90)" fill="#d4b96a">
      <rect width="80" height="20" rx="10" opacity=".15"/>
      <text x="40" y="12.866053" font-family="sans-serif" font-size="7px" font-weight="600" text-anchor="middle">BRIDGE</text>
    </g>
    <g transform="translate(620,125)" fill="#8b7355">
      <rect width="80" height="20" rx="10" opacity=".15"/>
      <text x="40" y="13.167434" font-family="sans-serif" font-size="7px" font-weight="600" text-anchor="middle">GROW</text>
    </g>
  </g>
  <circle cx="3" cy="3" r="3" fill="#7b1fa2" opacity=".4">
    <animateMotion dur="15s" path="M263,37 A72,72 0 1,1 262.9,37" repeatCount="indefinite"/>
    <animate attributeName="opacity" dur="3s" repeatCount="indefinite" values="0.4;0.8;0.4"/>
  </circle>
  <circle cx="3" cy="3" r="2.5" fill="#4caf50" opacity=".4">
    <animateMotion begin="-5s" dur="15s" path="M263,37 A72,72 0 1,1 262.9,37" repeatCount="indefinite"/>
    <animate attributeName="opacity" dur="3.5s" repeatCount="indefinite" values="0.4;0.7;0.4"/>
  </circle>
  <circle cx="3" cy="3" r="2" fill="#e65100" opacity=".4">
    <animateMotion begin="-10s" dur="15s" path="M263,37 A72,72 0 1,1 262.9,37" repeatCount="indefinite"/>
    <animate attributeName="opacity" dur="2.5s" repeatCount="indefinite" values="0.4;0.7;0.4"/>
  </circle>
  <g transform="matrix(1.8039 0 0 1.8039 265.91 106.06)">
    <circle cy="-10" r="13.106" fill="#d4b96a" stroke-width=".93612"/>
    <circle cy="-10" r="12" fill="#f5edd6"/>
    <circle cx="-3" cy="-11" r="1.5" fill="#2c3e50"/>
    <circle cx="3" cy="-11" r="1.5" fill="#2c3e50"/>
    <path d="m-3-6q3 3 6 0" fill="none" stroke="#2c3e50"/>
    <path d="m-9-16q9-10 18 0" fill="#5c3a1e"/>
    <rect x="-7" y="5" width="14" height="22" rx="3" fill="#3514e7"/>
  </g>
</svg>
