<?xml version="1.0" encoding="UTF-8"?>
<svg width="565" height="200" version="1.1" viewBox="0 0 565 200" xmlns="http://www.w3.org/2000/svg">
 <defs>
  <linearGradient id="whyBg" x2="0" y2="400" gradientTransform="scale(1.4125 .5)" gradientUnits="userSpaceOnUse">
   <stop stop-color="#E8F6FD" offset="0"/>
   <stop stop-color="#FFF9E8" offset="1"/>
  </linearGradient>
  <radialGradient id="brainGlow" cx="0" cy="0" r="45" gradientUnits="userSpaceOnUse">
   <stop stop-color="#7B1FA2" stop-opacity=".3" offset="0"/>
   <stop stop-color="#7B1FA2" stop-opacity="0" offset="1"/>
  </radialGradient>
  <radialGradient id="chipGlow" cx="0" cy="20" r="40" gradientUnits="userSpaceOnUse">
   <stop stop-color="#4CAF50" stop-opacity=".3" offset="0"/>
   <stop stop-color="#4CAF50" stop-opacity="0" offset="1"/>
  </radialGradient>
  <radialGradient id="bulbGlow" cx="0" cy="0" r="16" gradientUnits="userSpaceOnUse">
   <stop stop-color="#FFF176" stop-opacity=".6" offset="0"/>
   <stop stop-color="#FFF176" stop-opacity="0" offset="1"/>
  </radialGradient>
 </defs>
 <rect width="565" height="200" rx="11.3" fill="url(#whyBg)" stroke-width=".84039"/>
 <g transform="translate(170,55)">
  <circle r="45" fill="url(#brainGlow)">
   <animate attributeName="r" dur="4s" repeatCount="indefinite" values="45;50;45"/>
  </circle>
  <g fill="none">
   <g stroke="#7b1fa2">
    <path d="m-4-28c-16 0-26 10-26 23 0 7 4 13 8 17-4 4-6 10-2 16s14 6 20 2" stroke-linecap="round" stroke-width="2.5"/>
    <path d="m-4-28c16 0 26 8 28 18 2 8-2 16-6 20 6 4 8 10 4 16-4 8-14 8-26 4" stroke-linecap="round" stroke-width="2.5"/>
    <path d="m-4-28v58" opacity=".5" stroke-width="1.5"/>
    <path d="m-20-8q16 6 36 2" opacity=".4"/>
    <path d="m-22 12q18-4 40-2" opacity=".4"/>
   </g>
   <g opacity=".7" stroke="#4caf50" stroke-width=".8">
    <path d="m-18-15h8v7h8"/>
    <path d="m8-18v8h8"/>
    <path d="m-16 5h8v10"/>
    <path d="m6 8h8v10"/>
    <g fill="#4caf50">
     <circle cx="-2" cy="-8" r="1.5"/>
     <circle cx="16" cy="-10" r="1.5"/>
     <circle cx="-8" cy="15" r="1.5">
      <animate attributeName="opacity" dur="2s" repeatCount="indefinite" values="0.7;1;0.7"/>
     </circle>
     <circle cx="14" cy="18" r="1.5">
      <animate attributeName="opacity" begin="0.5s" dur="2.5s" repeatCount="indefinite" values="0.7;1;0.7"/>
     </circle>
    </g>
   </g>
  </g>
 </g>
 <g transform="translate(490,40)">
  <circle cy="20" r="40" fill="url(#chipGlow)">
   <animate attributeName="r" dur="5s" repeatCount="indefinite" values="40;44;40"/>
  </circle>
  <rect x="-16" y="-5" width="32" height="24" rx="4" fill="#2c3e50"/>
  <rect x="-13" y="-2" width="26" height="18" rx="2" fill="#444"/>
  <circle cx="-6" cy="7" r="4" fill="#85c3e8">
   <animate attributeName="fill" dur="3s" repeatCount="indefinite" values="#85C3E8;#4CAF50;#85C3E8"/>
  </circle>
  <circle cx="6" cy="7" r="4" fill="#85c3e8">
   <animate attributeName="fill" dur="3s" repeatCount="indefinite" values="#85C3E8;#4CAF50;#85C3E8"/>
  </circle>
  <circle cx="-6" cy="7" r="2" fill="#fff" opacity=".8"/>
  <circle cx="6" cy="7" r="2" fill="#fff" opacity=".8"/>
  <line y1="-5" y2="-14" stroke="#2c3e50" stroke-width="2"/>
  <circle cy="-16" r="3" fill="#e65100">
   <animate attributeName="r" dur="1.5s" repeatCount="indefinite" values="3;4;3"/>
   <animate attributeName="opacity" dur="1.5s" repeatCount="indefinite" values="0.8;1;0.8"/>
  </circle>
  <rect x="-20" y="22" width="40" height="35" rx="4" fill="#2c3e50"/>
  <rect x="-15" y="27" width="30" height="10" rx="2" fill="#444"/>
  <circle cx="-8" cy="32" r="2" fill="#4caf50">
   <animate attributeName="opacity" dur="2s" repeatCount="indefinite" values="1;0.3;1"/>
  </circle>
  <circle cy="32" r="2" fill="#fff176">
   <animate attributeName="opacity" begin="0.3s" dur="2s" repeatCount="indefinite" values="1;0.3;1"/>
  </circle>
  <circle cx="8" cy="32" r="2" fill="#1976d2">
   <animate attributeName="opacity" begin="0.6s" dur="2s" repeatCount="indefinite" values="1;0.3;1"/>
  </circle>
  <rect x="-28" y="24" width="6" height="25" rx="3" fill="#2c3e50"/>
  <rect x="22" y="24" width="6" height="25" rx="3" fill="#2c3e50"/>
  <g fill="none" opacity=".5" stroke="#4caf50" stroke-width=".6">
   <path d="m-10 42v8h10"/>
   <path d="m10 42v8h-5"/>
  </g>
 </g>
 <g transform="translate(340,35)">
  <rect x="-15" y="-15" width="30" height="30" rx="3" fill="#2c3e50"/>
  <rect x="-12" y="-12" width="24" height="24" rx="2" fill="#444"/>
  <rect x="-8" y="-8" width="16" height="16" rx="1" fill="#1976d2" opacity=".6">
   <animate attributeName="opacity" dur="2s" repeatCount="indefinite" values="0.6;0.9;0.6"/>
  </rect>
  <g stroke="#d4b96a" stroke-width="1.2">
   <line x1="-8" x2="-8" y1="-18" y2="-15"/>
   <line y1="-18" y2="-15"/>
   <line x1="8" x2="8" y1="-18" y2="-15"/>
   <line x1="-8" x2="-8" y1="15" y2="18"/>
   <line y1="15" y2="18"/>
   <line x1="8" x2="8" y1="15" y2="18"/>
   <line x1="-18" x2="-15" y1="-8" y2="-8"/>
   <line x1="-18" x2="-15"/>
   <line x1="-18" x2="-15" y1="8" y2="8"/>
   <line x1="15" x2="18" y1="-8" y2="-8"/>
   <line x1="15" x2="18"/>
   <line x1="15" x2="18" y1="8" y2="8"/>
  </g>
  <text y="4" fill="#fff176" font-family="monospace" font-size="10px" font-weight="bold" text-anchor="middle">AI</text>
 </g>
 <g transform="translate(70,95)">
  <circle r="16" fill="#d4b96a"/>
  <circle r="14" fill="#f5edd6"/>
  <ellipse cx="-4" cy="-3" rx="2.5" ry="3" fill="#fff"/>
  <ellipse cx="4" cy="-3" rx="2.5" ry="3" fill="#fff"/>
  <g fill="#2c3e50">
   <circle cx="-4" cy="-4.5" r="1.5"/>
   <circle cx="4" cy="-4.5" r="1.5"/>
   <ellipse cy="5" rx="3" ry="3.5" opacity=".2"/>
  </g>
  <ellipse cy="5" rx="2.5" ry="3" fill="none" stroke="#2c3e50"/>
  <path d="m-12-8q12-14 24 0" fill="#5c3a1e"/>
  <rect x="-10" y="16" width="20" height="30" rx="4" fill="#e65100"/>
  <path d="m10 22c6-8 14-14 20-20" fill="none" stroke="#e65100" stroke-linecap="round" stroke-width="6"/>
  <path d="m-10 22c-6-8-12-12-16-16" fill="none" stroke="#e65100" stroke-linecap="round" stroke-width="6"/>
  <circle cx="30" cy="2" r="4" fill="#f5edd6"/>
  <circle cx="-26" cy="6" r="4" fill="#f5edd6"/>
  <circle cx="35" cy="-10" r="2" fill="#fff176" opacity="0">
   <animate attributeName="opacity" begin="0.2s" dur="2s" repeatCount="indefinite" values="0;0.8;0"/>
  </circle>
  <circle cx="-30" cy="-5" r="1.5" fill="#fff176" opacity="0">
   <animate attributeName="opacity" begin="0.8s" dur="2.5s" repeatCount="indefinite" values="0;0.7;0"/>
  </circle>
 </g>
 <g transform="translate(280,130)">
  <circle r="16" fill="url(#bulbGlow)">
   <animate attributeName="r" dur="3s" repeatCount="indefinite" values="16;20;16"/>
  </circle>
  <path d="m0-14c-10 0-12 10-8 16 2 4 2 6 2 8h12c0-2 0-4 2-8 4-6 2-16-8-16z" fill="#fff176"/>
  <path d="m0-14c-10 0-12 10-8 16 2 4 2 6 2 8h12c0-2 0-4 2-8 4-6 2-16-8-16z" fill="#fff" opacity=".3"/>
  <path d="m-2 0q2-4 4 0-2 4-4 0" fill="none" stroke="#e65100"/>
  <rect x="-5" y="10" width="10" height="5" rx="1" fill="#d4b96a"/>
  <line x1="-4" x2="4" y1="12" y2="12" stroke="#c4a95a" stroke-width=".5"/>
  <circle cy="-2" r="8" fill="#fff176" opacity=".15">
   <animate attributeName="opacity" dur="2s" repeatCount="indefinite" values="0.15;0.35;0.15"/>
  </circle>
 </g>
 <g fill="none">
  <path d="m110 120q80 20 158 10" opacity=".5" stroke="#d4b96a" stroke-dasharray="6, 3" stroke-width="2">
   <animate attributeName="stroke-dashoffset" dur="3s" repeatCount="indefinite" values="0;18"/>
  </path>
  <path d="m292 130q98-20 188-50" opacity=".5" stroke="#d4b96a" stroke-dasharray="6, 3" stroke-width="2">
   <animate attributeName="stroke-dashoffset" dur="3s" repeatCount="indefinite" values="0;18"/>
  </path>
  <path d="m200 55 125-20" opacity=".4" stroke="#7b1fa2" stroke-dasharray="4, 2"/>
  <path d="m355 35 115 5" opacity=".4" stroke="#4caf50" stroke-dasharray="4, 2"/>
 </g>
 <circle cx="-30" r="2" fill="#4caf50" opacity=".8">
  <animateMotion dur="4s" path="M230,55 L355,35" repeatCount="indefinite"/>
  <animate attributeName="opacity" dur="2s" repeatCount="indefinite" values="0.8;0.2;0.8"/>
 </circle>
 <circle cx="-30" r="2" fill="#7b1fa2" opacity=".8">
  <animateMotion dur="3.5s" path="M385,35 L500,40" repeatCount="indefinite"/>
  <animate attributeName="opacity" dur="2s" repeatCount="indefinite" values="0.8;0.2;0.8"/>
 </circle>
 <path d="m30.009 175.02q116.99-7.0426 254.63-3.0183 137.64 6.0365 254.63-2.0122" fill="none" opacity=".15" stroke="#8b7355"/>
</svg>
