<?xml version="1.0" encoding="UTF-8"?>
<svg width="284.09" height="271.45" version="1.1" viewBox="0 0 284.09 271.45" xmlns="http://www.w3.org/2000/svg" xmlns:xlink="http://www.w3.org/1999/xlink">
 <defs>
  <linearGradient id="bgGrad" x2="400" y2="400" gradientTransform="matrix(.71022 0 0 .67863 -1.3818e-5 1.3943e-6)" gradientUnits="userSpaceOnUse">
   <stop stop-color="#FFF9E8" offset="0"/>
   <stop stop-color="#E8F6FD" offset="1"/>
  </linearGradient>
  <radialGradient id="starGlow">
   <stop stop-color="#FFD54F" offset="0"/>
   <stop stop-color="#FFB300" stop-opacity=".6" offset=".5"/>
   <stop stop-color="#FFB300" stop-opacity="0" offset="1"/>
  </radialGradient>
  <radialGradient id="radialGradient86053" cx="0" cy="8" r="20" gradientUnits="userSpaceOnUse" xlink:href="#starGlow"/>
  <radialGradient id="radialGradient86055" cx="0" cy="8" r="12" gradientUnits="userSpaceOnUse" xlink:href="#starGlow"/>
 </defs>
 <rect width="284.09" height="271.45" rx="5.6818" fill="url(#bgGrad)" stroke-width=".69424"/>
 <g transform="translate(142.04 135.73)">
  <g transform="translate(45.585 -14.149)">
   <circle cx="-80" cy="-35" r="68" fill="none" opacity=".3" stroke="#1976d2" stroke-dasharray="4, 3"/>
   <circle cx="-80" cy="-35" r="68" fill="#1976d2" opacity=".15" stroke="#1976d2" stroke-opacity=".4" stroke-width="1.5"/>
   <text x="-99.025223" y="-70.49073" fill="#1976d2" font-family="Inter, 'Segoe UI', sans-serif" font-size="10px" font-weight="600" text-anchor="middle"><tspan x="-99.025223" dy="0">IT &amp;</tspan><tspan x="-99.025223" dy="12">Tech</tspan></text>
   <g transform="translate(-98,-48)" fill="none" opacity=".5" stroke="#1976d2" stroke-width="1.5">
    <path d="m-6-5-4 5 4 5" stroke-linecap="round"/>
    <path d="m6-5 4 5-4 5" stroke-linecap="round"/>
    <line x1="-2" x2="2" y1="6" y2="-6"/>
   </g>
  </g>
  <g transform="translate(-43.891 -12.918)">
   <circle cx="80" cy="-35" r="68" fill="none" opacity=".3" stroke="#e65100" stroke-dasharray="4, 3"/>
   <g fill="#e65100">
    <circle cx="80" cy="-35" r="68" opacity=".15" stroke="#e65100" stroke-opacity=".4" stroke-width="1.5"/>
    <text x="97.379967" y="-71.193062" font-family="Inter, 'Segoe UI', sans-serif" font-size="10px" font-weight="600" text-anchor="middle"><tspan x="97.379967" dy="0">DIY &amp;</tspan><tspan x="97.379967" dy="12">Making</tspan></text>
    <g transform="translate(98,-50)" opacity=".5">
     <circle r="5" fill="none" stroke="#e65100" stroke-width="1.5"/>
     <circle r="2" fill="#e65100"/>
    </g>
   </g>
  </g>
  <g transform="translate(42.622 -22.458)">
   <circle cx="-100" cy="40" r="68" fill="none" opacity=".3" stroke="#2e7d32" stroke-dasharray="4, 3"/>
   <circle cx="-100" cy="40" r="68" fill="#2e7d32" opacity=".15" stroke="#2e7d32" stroke-opacity=".4" stroke-width="1.5"/>
   <text x="-134.67856" y="59.922207" fill="#2e7d32" font-family="Inter, 'Segoe UI', sans-serif" font-size="10px" font-weight="600" text-anchor="middle"><tspan x="-134.67856" dy="0">Home</tspan><tspan x="-134.67856" dy="12">&amp; Life</tspan></text>
   <g transform="translate(-135,45)" fill="none" opacity=".5" stroke="#2e7d32" stroke-width="1.5">
    <path d="m-6 2 6-7 6 7v4h-12z"/>
   </g>
  </g>
  <g transform="translate(-43.269 -20.466)">
   <circle cx="100" cy="40" r="68" fill="none" opacity=".3" stroke="#7b1fa2" stroke-dasharray="4, 3"/>
   <g fill="#7b1fa2">
    <circle cx="100" cy="40" r="68" opacity=".15" stroke="#7b1fa2" stroke-opacity=".4" stroke-width="1.5"/>
    <text x="132.97107" y="58.59256" font-family="Inter, 'Segoe UI', sans-serif" font-size="10px" font-weight="600" text-anchor="middle"><tspan x="132.97107" dy="0">Music &amp;</tspan><tspan x="132.97107" dy="12">Creative</tspan></text>
    <g transform="translate(130,43)" opacity=".5">
     <circle cy="3" r="3"/>
     <line x1="3" x2="3" y1="3" y2="-7" stroke="#7b1fa2" stroke-width="1.5"/>
     <path d="m3-7q4-2 3 3" fill="#7b1fa2"/>
    </g>
   </g>
  </g>
  <g transform="translate(-1.0471 4.9909)">
   <circle cy="55" r="68" fill="none" opacity=".3" stroke="#00695c" stroke-dasharray="4, 3"/>
   <circle cy="55" r="68" fill="#00695c" opacity=".15" stroke="#00695c" stroke-opacity=".4" stroke-width="1.5"/>
   <text x="0.45848781" y="95.22789" fill="#00695c" font-family="Inter, 'Segoe UI', sans-serif" font-size="9px" font-weight="600" text-anchor="middle"><tspan x="0.45848781" dy="0">Entrepreneurship</tspan></text>
   <g transform="translate(0,78)" fill="none" opacity=".5" stroke="#00695c" stroke-width="1.5">
    <path d="m0-6q-4 4-4 9h8q0-5-4-9z"/>
    <line x1="-3" x2="-5" y1="3" y2="6"/>
    <line x1="3" x2="5" y1="3" y2="6"/>
   </g>
  </g>
  <g transform="translate(.22472 -8.6517)">
   <circle cy="8" r="20" fill="url(#radialGradient86053)" opacity=".5">
    <animate attributeName="r" dur="3s" repeatCount="indefinite" values="20;28;20"/>
    <animate attributeName="opacity" dur="3s" repeatCount="indefinite" values="0.5;0.25;0.5"/>
   </circle>
   <circle cy="8" r="12" fill="url(#radialGradient86055)" opacity=".7">
    <animate attributeName="r" dur="3s" repeatCount="indefinite" values="12;16;12"/>
    <animate attributeName="opacity" dur="3s" repeatCount="indefinite" values="0.7;0.4;0.7"/>
   </circle>
   <polygon transform="translate(0,8)" points="-7 10 -5 2 -10 -3 -3 -3 0 -10 3 -3 10 -3 5 2 7 10 0 5" fill="#ffb300" stroke="#ff8f00" stroke-width=".5">
    <animate attributeName="fill" dur="3s" repeatCount="indefinite" values="#FFB300;#FFD54F;#FFB300"/>
    <animateTransform additive="sum" attributeName="transform" dur="3s" repeatCount="indefinite" type="scale" values="1;1.1;1"/>
   </polygon>
   <g fill="#ffd54f">
    <polygon transform="translate(0,8)" points="-4 6 -3 1 -6 -2 -2 -2 0 -6 2 -2 6 -2 3 1 4 6 0 3">
     <animate attributeName="opacity" dur="3s" repeatCount="indefinite" values="0.7;1;0.7"/>
    </polygon>
    <circle cx="14" r="1.5" opacity="0">
     <animate attributeName="opacity" begin="0.5s" dur="3s" repeatCount="indefinite" values="0;0.8;0"/>
    </circle>
    <circle cx="-14" cy="16" r="1" opacity="0">
     <animate attributeName="opacity" begin="1s" dur="3s" repeatCount="indefinite" values="0;0.8;0"/>
    </circle>
    <circle cx="10" cy="20" r="1.2" opacity="0">
     <animate attributeName="opacity" begin="1.5s" dur="3s" repeatCount="indefinite" values="0;0.8;0"/>
    </circle>
    <circle cx="-12" cy="-2" r="1" opacity="0">
     <animate attributeName="opacity" begin="2s" dur="3s" repeatCount="indefinite" values="0;0.8;0"/>
    </circle>
   </g>
  </g>
 </g>
</svg>
