<?xml version="1.0" encoding="UTF-8"?>
<svg width="680.96" height="200" version="1.1" viewBox="0 0 680.96 200" xmlns="http://www.w3.org/2000/svg">
 <defs>
  <linearGradient id="bgGrad" x2="400" y2="400" gradientTransform="scale(1.7024 .5)" gradientUnits="userSpaceOnUse">
   <stop stop-color="#E3F2FD" offset="0"/>
   <stop stop-color="#E8F6FD" offset="1"/>
  </linearGradient>
  <linearGradient id="screenGrad" x1="3.9528" x2="3.9528" y1="6.3246" y2="101.19" gradientTransform="scale(1.2649 .79057)" gradientUnits="userSpaceOnUse">
   <stop stop-color="#1a1a2e" offset="0"/>
   <stop stop-color="#16213e" offset="1"/>
  </linearGradient>
  <linearGradient id="shieldGrad" x1="6.1237" x2="6.1237" y2="61.237" gradientTransform="scale(.8165 1.2247)" gradientUnits="userSpaceOnUse">
   <stop stop-color="#1976D2" offset="0"/>
   <stop stop-color="#0D47A1" offset="1"/>
  </linearGradient>
 </defs>
 <rect width="680.96" height="200" rx="13.619" fill="url(#bgGrad)" stroke-width=".9226"/>
 <g opacity=".04" stroke="#1976d2" stroke-width=".5">
  <line x2="800" y1="40" y2="40"/>
  <line x2="800" y1="80" y2="80"/>
  <line x2="800" y1="120" y2="120"/>
  <line x2="800" y1="160" y2="160"/>
  <line x1="100" x2="100" y2="200"/>
  <line x1="200" x2="200" y2="200"/>
  <line x1="300" x2="300" y2="200"/>
  <line x1="400" x2="400" y2="200"/>
  <line x1="500" x2="500" y2="200"/>
  <line x1="600" x2="600" y2="200"/>
  <line x1="700" x2="700" y2="200"/>
 </g>
 <g transform="matrix(1.0401 0 0 1.0401 53.153 49.945)">
  <rect width="130" height="85" rx="6" fill="#2c2c3a" stroke="#555" stroke-width="1.5"/>
  <rect x="5" y="5" width="120" height="75" rx="3" fill="url(#screenGrad)"/>
  <rect x="10" y="12" width="45" height="3" rx="1" fill="#66bb6a" opacity=".9"/>
  <rect x="58" y="12" width="30" height="3" rx="1" fill="#fff176" opacity=".8"/>
  <rect x="10" y="20" width="25" height="3" rx="1" fill="#f48fb1" opacity=".8"/>
  <rect x="38" y="20" width="55" height="3" rx="1" fill="#81d4fa" opacity=".7"/>
  <rect x="10" y="28" width="60" height="3" rx="1" fill="#66bb6a" opacity=".9"/>
  <rect x="18" y="36" width="40" height="3" rx="1" fill="#fff176" opacity=".8"/>
  <rect x="62" y="36" width="30" height="3" rx="1" fill="#f48fb1" opacity=".8"/>
  <rect x="18" y="44" width="50" height="3" rx="1" fill="#81d4fa" opacity=".7"/>
  <rect x="10" y="52" width="35" height="3" rx="1" fill="#66bb6a" opacity=".9"/>
  <rect x="48" y="52" width="45" height="3" rx="1" fill="#fff176" opacity=".8"/>
  <rect x="10" y="60" width="20" height="3" rx="1" fill="#f48fb1" opacity=".8"/>
  <rect x="34" y="60" width="55" height="3" rx="1" fill="#81d4fa" opacity=".7"/>
  <rect x="10" y="68" width="40" height="3" rx="1" fill="#66bb6a" opacity=".9"/>
  <rect x="53" y="68" width="2" height="6" rx=".5" fill="#fff">
   <animate attributeName="opacity" dur="1s" repeatCount="indefinite" values="1;1;0;0"/>
  </rect>
  <path rx="2" d="m-10 85h150l10 10h-170z" fill="#3a3a4a"/>
  <rect x="-15" y="93" width="160" height="4" rx="2" fill="#4a4a5a"/>
  <ellipse cx="65" cy="89" rx="15" ry="2" fill="#555" opacity=".5"/>
 </g>
 <g transform="matrix(1.455 0 0 1.455 237 17.676)">
  <rect width="55" height="110" rx="4" fill="#37474f" stroke="#546e7a"/>
  <rect width="55" height="110" rx="4" fill="none" opacity=".3" stroke="#1976d2" stroke-width=".5"/>
  <g fill="#455a64">
   <rect x="5" y="8" width="45" height="14" rx="2"/>
   <rect x="5" y="26" width="45" height="14" rx="2"/>
   <rect x="5" y="44" width="45" height="14" rx="2"/>
   <rect x="5" y="62" width="45" height="14" rx="2"/>
   <rect x="5" y="80" width="45" height="14" rx="2"/>
  </g>
  <circle cx="12" cy="15" r="2" fill="#4caf50">
   <animate attributeName="fill" dur="2s" repeatCount="indefinite" values="#4CAF50;#81C784;#4CAF50"/>
  </circle>
  <circle cx="20" cy="15" r="2" fill="#1976d2">
   <animate attributeName="opacity" dur="1.5s" repeatCount="indefinite" values="1;0.4;1"/>
  </circle>
  <circle cx="12" cy="33" r="2" fill="#4caf50"/>
  <circle cx="20" cy="33" r="2" fill="#ffa726">
   <animate attributeName="fill" dur="3s" repeatCount="indefinite" values="#FFA726;#FFE082;#FFA726"/>
  </circle>
  <circle cx="12" cy="51" r="2" fill="#4caf50">
   <animate attributeName="opacity" dur="1.8s" repeatCount="indefinite" values="1;0.5;1"/>
  </circle>
  <circle cx="20" cy="51" r="2" fill="#1976d2"/>
  <circle cx="12" cy="69" r="2" fill="#4caf50"/>
  <circle cx="20" cy="69" r="2" fill="#4caf50">
   <animate attributeName="fill" dur="4s" repeatCount="indefinite" values="#4CAF50;#FFA726;#4CAF50"/>
  </circle>
  <circle cx="12" cy="87" r="2" fill="#1976d2">
   <animate attributeName="opacity" dur="2.2s" repeatCount="indefinite" values="0.4;1;0.4"/>
  </circle>
  <circle cx="20" cy="87" r="2" fill="#4caf50"/>
  <g opacity=".6" stroke="#546e7a" stroke-width=".5">
   <line x1="30" x2="45" y1="10" y2="10"/>
   <line x1="30" x2="45" y1="13" y2="13"/>
   <line x1="30" x2="45" y1="16" y2="16"/>
   <line x1="30" x2="45" y1="28" y2="28"/>
   <line x1="30" x2="45" y1="31" y2="31"/>
   <line x1="30" x2="45" y1="34" y2="34"/>
   <line x1="30" x2="45" y1="46" y2="46"/>
   <line x1="30" x2="45" y1="49" y2="49"/>
   <line x1="30" x2="45" y1="52" y2="52"/>
  </g>
 </g>
 <g transform="translate(355,55)">
  <g fill="none" stroke-linecap="round">
   <path d="m0 0q20-10 40 5t40 5" opacity=".7" stroke="#1976d2" stroke-width="2.5"/>
   <path d="m0 31q25-10 50 5t50-5" opacity=".5" stroke="#42a5f5" stroke-width="2"/>
   <path d="m0 66q30-15 60 0 25 15 50-5" opacity=".4" stroke="#90caf9" stroke-width="1.5"/>
  </g>
  <circle r="3" fill="#1976d2" opacity=".8">
   <animateMotion dur="2s" path="m0 0q20-10 40 5t40 5" repeatCount="indefinite"/>
  </circle>
  <circle r="2.5" fill="#42a5f5" opacity=".7">
   <animateMotion dur="2.5s" path="m0 31q25-10 50 5t50-5" repeatCount="indefinite"/>
  </circle>
  <circle r="2" fill="#90caf9" opacity=".6">
   <animateMotion dur="3s" path="m0 66q30-15 60 0 25 15 50-5" repeatCount="indefinite"/>
  </circle>
 </g>
 <g transform="translate(494.46 81.53)">
  <path d="m30 0 25 12v30q0 23-25 33-25-10-25-33v-30z" fill="url(#shieldGrad)" opacity=".9"/>
  <path d="m30 5 20 10v25q0 20-20 28-20-8-20-28v-25z" fill="#1e88e5" opacity=".6"/>
  <path d="m20 38 7 8 15-18" fill="none" stroke="#fff" stroke-linecap="round" stroke-linejoin="round" stroke-width="3.5"/>
  <path d="m30 0 25 12v30q0 23-25 33-25-10-25-33v-30z" fill="none" opacity=".5" stroke="#bbdefb" stroke-width="1.5">
   <animate attributeName="opacity" dur="3s" repeatCount="indefinite" values="0.5;0;0.5"/>
   <animate attributeName="stroke-width" dur="3s" repeatCount="indefinite" values="1.5;3;1.5"/>
  </path>
 </g>
 <g transform="matrix(1.5007 0 0 1.5007 486.28 33.284)">
  <rect width="28" height="20" rx="4" fill="#1565c0" stroke="#bbdefb"/>
  <rect x="4" y="4" width="20" height="3" rx="1" fill="#64b5f6" opacity=".6"/>
  <rect x="4" y="10" width="14" height="3" rx="1" fill="#64b5f6" opacity=".4"/>
  <path d="m28 10q5 0 5-5t5-5h4q5 0 5 5t-5 5" fill="none" stroke="#90caf9" stroke-width="1.5"/>
  <rect x="42" width="28" height="20" rx="4" fill="#1565c0" stroke="#bbdefb"/>
  <rect x="46" y="4" width="20" height="3" rx="1" fill="#64b5f6" opacity=".6"/>
  <rect x="46" y="10" width="14" height="3" rx="1" fill="#64b5f6" opacity=".4"/>
  <path d="m70 10q5 0 5-5t5-5h4q5 0 5 5t-5 5" fill="none" stroke="#90caf9" stroke-width="1.5"/>
  <rect x="84" width="28" height="20" rx="4" fill="#1565c0" stroke="#bbdefb"/>
  <rect x="88" y="4" width="20" height="3" rx="1" fill="#64b5f6" opacity=".6"/>
  <rect x="88" y="10" width="14" height="3" rx="1" fill="#64b5f6" opacity=".4"/>
  <g fill="#bbdefb" opacity=".5">
   <rect x="4" y="14" width="8" height="2" rx="1">
    <animate attributeName="width" dur="4s" repeatCount="indefinite" values="8;14;8"/>
   </rect>
   <rect x="46" y="14" width="12" height="2" rx="1">
    <animate attributeName="width" dur="3.5s" repeatCount="indefinite" values="12;8;12"/>
   </rect>
   <rect x="88" y="14" width="10" height="2" rx="1">
    <animate attributeName="width" dur="4.5s" repeatCount="indefinite" values="10;16;10"/>
   </rect>
  </g>
 </g>
 <g transform="translate(581.15 99)">
  <rect width="50" height="50" rx="6" fill="#0d47a1" stroke="#1976d2" stroke-width="1.5"/>
  <rect x="5" y="5" width="40" height="40" rx="4" fill="#1565c0"/>
  <g fill="none" stroke="#64b5f6" stroke-linecap="round" stroke-width="1.5">
   <path d="m13 25q5-5 12-3t12-2"/>
   <path d="m15 32q5-4 10-2t10-2"/>
  </g>
  <g stroke="#90caf9" stroke-width="1.5">
   <line x1="12" x2="12" y1="-5"/>
   <line x1="20" x2="20" y1="-5"/>
   <line x1="30" x2="30" y1="-5"/>
   <line x1="38" x2="38" y1="-5"/>
   <line x1="12" x2="12" y1="50" y2="55"/>
   <line x1="20" x2="20" y1="50" y2="55"/>
   <line x1="30" x2="30" y1="50" y2="55"/>
   <line x1="38" x2="38" y1="50" y2="55"/>
   <line x1="-5" y1="12" y2="12"/>
   <line x1="-5" y1="20" y2="20"/>
   <line x1="-5" y1="30" y2="30"/>
   <line x1="-5" y1="38" y2="38"/>
   <line x1="50" x2="55" y1="12" y2="12"/>
   <line x1="50" x2="55" y1="20" y2="20"/>
   <line x1="50" x2="55" y1="30" y2="30"/>
   <line x1="50" x2="55" y1="38" y2="38"/>
  </g>
  <g fill="#bbdefb">
   <circle cx="12" cy="12" r="1.5" opacity=".5">
    <animate attributeName="opacity" begin="0s" dur="1.5s" repeatCount="indefinite" values="0.5;1;0.5"/>
   </circle>
   <circle cx="38" cy="12" r="1.5" opacity=".5">
    <animate attributeName="opacity" begin="0.3s" dur="1.5s" repeatCount="indefinite" values="0.5;1;0.5"/>
   </circle>
   <circle cx="12" cy="38" r="1.5" opacity=".5">
    <animate attributeName="opacity" begin="0.6s" dur="1.5s" repeatCount="indefinite" values="0.5;1;0.5"/>
   </circle>
   <circle cx="38" cy="38" r="1.5" opacity=".5">
    <animate attributeName="opacity" begin="0.9s" dur="1.5s" repeatCount="indefinite" values="0.5;1;0.5"/>
   </circle>
  </g>
 </g>
</svg>
