<?xml version="1.0" encoding="UTF-8"?>
<svg width="550" height="200" version="1.1" viewBox="0 0 550 200" xml:space="preserve" xmlns="http://www.w3.org/2000/svg"><defs><linearGradient id="bgGrad" x2="400" y2="400" gradientTransform="scale(1.375 .5)" gradientUnits="userSpaceOnUse"><stop stop-color="#F3E5F5" offset="0"/><stop stop-color="#FFF9E8" offset="1"/></linearGradient><linearGradient id="ampGrad" x1="-.83698" x2="-.83698" y1="-.67206" y2="90.28" gradientTransform="scale(.89608 1.116)" gradientUnits="userSpaceOnUse"><stop stop-color="#37474F" offset="0"/><stop stop-color="#263238" offset="1"/></linearGradient><linearGradient id="dawScreen" x1="3.7377" x2="3.7377" y1="6.6886" y2="133.77" gradientTransform="scale(1.3377 .74754)" gradientUnits="userSpaceOnUse"><stop stop-color="#1a1a2e" offset="0"/><stop stop-color="#0d1117" offset="1"/></linearGradient></defs><rect width="550" height="200" rx="11" fill="url(#bgGrad)" stroke-width=".82916"/><g transform="translate(439.94 29.556)"><g fill="none" stroke-linecap="round"><path d="m0 50q0-55 40-55t40 55" stroke="#424242" stroke-width="6"/><path d="m0 50q0-50 40-50t40 50" stroke="#616161" stroke-width="4"/><path d="m20 8q20-10 40 0" stroke="#757575" stroke-width="6"/></g><rect x="-12" y="40" width="24" height="40" rx="10" fill="#37474f" stroke="#455a64"/><rect x="-8" y="44" width="16" height="32" rx="8" fill="#263238"/><circle cy="60" r="6" fill="#1a1a1a"/><circle cy="60" r="3" fill="#7b1fa2" opacity=".3"/><rect x="68" y="40" width="24" height="40" rx="10" fill="#37474f" stroke="#455a64"/><rect x="72" y="44" width="16" height="32" rx="8" fill="#263238"/><circle cx="80" cy="60" r="6" fill="#1a1a1a"/><circle cx="80" cy="60" r="3" fill="#7b1fa2" opacity=".3"/><ellipse cy="60" rx="10" ry="16" fill="none" opacity=".3" stroke="#455a64" stroke-width=".5"/><ellipse cx="80" cy="60" rx="10" ry="16" fill="none" opacity=".3" stroke="#455a64" stroke-width=".5"/></g><g transform="translate(65.4 7.1813)"><path d="m82.361 104.77c-4.6114 7.8186-13.309 5.1414-15.141-18.637-11.2 14.601-0.02141 25.512-0.064 40.884-0.04258 15.372-8.6988 14.402-8.5979 29.626 0.10086 15.224 15.358 17.007 28.911 16.591 13.553-0.41663 28.246 0.0499 28.837-14.569 0.59064-14.619-8.1628-22.467-8.3178-29.049-0.15498-6.5822 9.5915-17.544 0.98742-26.411-0.45478 7.638-8.4773 23.551-14.889 10.777z" fill="#006575" stroke="#696969" stroke-linejoin="round" stroke-width="1.185px"/><path d="m112.07 108.41-4.7148 1.4961c-2.7361 7.0706-8.4135 13.599-13.211 4.1953l-27.279 8.6621c0.16984 1.3874 0.29116 2.7968 0.28711 4.2578-0.04258 15.372-8.7005 14.403-8.5996 29.627 0.0065 0.98384 0.08042 1.9086 0.20898 2.7832l54.152-17.195c-2.2695-5.143-4.8462-9.0685-4.9297-12.615-0.12573-5.3399 6.2631-13.563 4.0859-21.211z" fill="#fff" opacity=".47914"/><rect x="80.422" y="137.35" width="15.489" height="8.6518" rx="1.2907" fill="#212121" stroke-width=".96468"/><rect x="80" y="152" width="16" height="4" rx="1" fill="#9e9e9e"/><circle cx="104" cy="136.1" r="2" fill="#ffd600"/><circle cx="103.28" cy="145.74" r="4" fill="#212121"/><circle cx="107.98" cy="157.27" r="4" fill="#212121"/><circle cx="103.28" cy="145.74" r="2" fill="#333"/><circle cx="107.98" cy="157.27" r="2" fill="#333"/><rect x="82" y="25.639" width="12" height="94.39" rx="1.102" fill="#5d4037" stroke-width=".95755"/><rect x="84" y="25.688" width="8" height="95.081" rx="1" fill="#6d4c41" stroke-width=".89014"/><g opacity=".6" stroke="#bdbdbd" stroke-width=".7"><line x1="82" x2="94" y1="34.674" y2="34.674"/><line x1="82" x2="94" y1="41.06" y2="41.06"/><line x1="82" x2="94" y1="47.154" y2="47.154"/><line x1="82" x2="94" y1="53.013" y2="53.013"/><line x1="82" x2="94" y1="58.449" y2="58.449"/><line x1="82" x2="94" y1="63.557" y2="63.557"/><line x1="82" x2="94" y1="68.429" y2="68.429"/><line x1="82" x2="94" y1="72.946" y2="72.946"/><line x1="82" x2="94" y1="77.275" y2="77.275"/><line x1="82" x2="94" y1="81.275" y2="81.275"/><line x1="82" x2="94" y1="85.181" y2="85.181"/><line x1="82" x2="94" y1="88.758" y2="88.758"/><line x1="82" x2="94" y1="92.194" y2="92.194"/><line x1="82" x2="94" y1="95.369" y2="95.369"/><line x1="82" x2="94" y1="98.402" y2="98.402"/><line x1="82" x2="94" y1="101.25" y2="101.25"/><line x1="82" x2="94" y1="103.91" y2="103.91"/><line x1="82" x2="94" y1="106.56" y2="106.56"/><line x1="82" x2="94" y1="108.94" y2="108.94"/><line x1="82" x2="94" y1="111.22" y2="111.22"/><line x1="82" x2="94" y1="113.36" y2="113.36"/><line x1="82" x2="94" y1="115.46" y2="115.46"/><line x1="82" x2="94" y1="117.46" y2="117.46"/><line x1="82" x2="94" y1="119.17" y2="119.17"/></g><g fill="#bdbdbd"><circle cx="88" cy="39" r="1.5" opacity=".5"/><circle cx="88" cy="56" r="1.5" opacity=".5"/><circle cx="88" cy="71" r="1.5" opacity=".5"/></g><rect x="79.5" y="7.0631" width="17" height="20" rx="2.55" fill="#3e2723" stroke-width="1.102"/><g fill="#ffd600"><circle cx="83" cy="17.063" r="2"/><circle cx="83" cy="23.063" r="2"/><circle cx="93" cy="17.063" r="2"/><circle cx="83" cy="11.063" r="2"/><circle cx="93" cy="11.063" r="2"/><circle cx="93" cy="23.063" r="2"/></g><rect x="80.55" y="121.24" width="15.523" height="5.1604" rx="1.2936" fill="#212121" stroke-width=".74584"/><g transform="matrix(1 0 0 .907 0 14.415)" opacity=".7" stroke="#e0e0e0" stroke-width=".5"><line x1="85" x2="85" y1="14" y2="155"/><line x1="87" x2="87" y1="14" y2="155"/><line x1="89" x2="89" y1="14" y2="155"/><line x1="91" x2="91" y1="14" y2="155"/><line x1="92.801" x2="92.801" y1="14" y2="155"/><line x1="83.199" x2="83.199" y1="14" y2="155"/></g></g><g transform="translate(24,79)"><rect width="80" height="100" rx="6" fill="url(#ampGrad)" stroke="#455a64" stroke-width="1.5"/><rect x="8" y="35" width="64" height="55" rx="4" fill="#1a1a1a"/><circle cx="40" cy="62" r="22" fill="#212121" stroke="#333"/><circle cx="40" cy="62" r="18" fill="#1a1a1a"/><circle cx="40" cy="62" r="4" fill="#333"/><g opacity=".3" stroke="#333" stroke-width=".5"><line x1="10" x2="70" y1="40" y2="40"/><line x1="10" x2="70" y1="45" y2="45"/><line x1="10" x2="70" y1="50" y2="50"/><line x1="10" x2="70" y1="75" y2="75"/><line x1="10" x2="70" y1="80" y2="80"/><line x1="10" x2="70" y1="85" y2="85"/></g><rect x="5" y="5" width="70" height="25" rx="3" fill="#263238"/><circle cx="15" cy="17" r="5" fill="#37474f" stroke="#455a64" stroke-width=".5"/><line x1="15" x2="15" y1="13" y2="17" stroke="#7b1fa2" stroke-linecap="round" stroke-width="1.5"/><circle cx="32" cy="17" r="5" fill="#37474f" stroke="#455a64" stroke-width=".5"/><line x1="30.028" x2="32.028" y1="13.089" y2="17.089" stroke="#7b1fa2" stroke-linecap="round" stroke-width="1.5"/><circle cx="49" cy="17" r="5" fill="#37474f" stroke="#455a64" stroke-width=".5"/><line x1="47.156" x2="49.156" y1="12.953" y2="16.953" stroke="#7b1fa2" stroke-linecap="round" stroke-width="1.5"/><circle cx="66" cy="17" r="5" fill="#37474f" stroke="#455a64" stroke-width=".5"/><line x1="63.958" x2="65.958" y1="13.127" y2="17.127" stroke="#ff5252" stroke-linecap="round" stroke-width="1.5"/><circle cx="10" cy="7" r="1.5" fill="#f44336"><animate attributeName="opacity" dur="3s" repeatCount="indefinite" values="1;0.5;1"/></circle><rect x="25" y="5" width="30" height="5" rx="1" fill="#455a64" opacity=".5"/></g><g transform="translate(226.06 14.352)"><rect width="180" height="110" rx="5" fill="#333" stroke="#555" stroke-width="1.5"/><rect x="5" y="5" width="170" height="95" rx="3" fill="url(#dawScreen)"/><rect x="75" y="110" width="30" height="8" rx="1" fill="#424242"/><rect x="60" y="116" width="60" height="4" rx="2" fill="#555"/><rect x="8" y="8" width="164" height="8" rx="1" fill="#1a1a2e"/><circle cx="14" cy="12" r="2" fill="#f44336" opacity=".7"/><circle cx="22" cy="12" r="2" fill="#ffc107" opacity=".7"/><circle cx="30" cy="12" r="2" fill="#4caf50" opacity=".7"/><rect x="8" y="20" width="30" height="10" rx="1" fill="#1b5e20" opacity=".5"/><rect x="8" y="33" width="30" height="10" rx="1" fill="#0d47a1" opacity=".5"/><rect x="8" y="46" width="30" height="10" rx="1" fill="#4a148c" opacity=".5"/><rect x="8" y="59" width="30" height="10" rx="1" fill="#bf360c" opacity=".5"/><rect x="8" y="72" width="30" height="10" rx="1" fill="#00695c" opacity=".5"/><g opacity=".8"><g fill="none"><path d="m40 25 2-3 2 4 2-2 2 5 2-4 2 3 2-5 2 4 2-3 2 2 2-4 2 5 2-2 2 3 2-4 2 2 2-3 2 5 2-4 2 3 2-2 2 4 2-5 2 3 2-3 2 4 2-2 2 5 2-4 2 3 2-2 2 4 2-3 2 2 2-4 2 5 2-3 2 4 2-5 2 3 2-2 2 4 2-3 2 2 2-4 2 5 2-3 2 4" stroke="#66bb6a"/><path d="m40 38 3-2 2 3 3-4 2 3 3-2 2 4 3-3 2 2 3-4 2 3 3-2 2 4 3-3 2 2 3-4 2 3 3-2 2 4 3-3 2 2 3-4 2 3 3-2 2 4" stroke="#42a5f5"/><path d="m40 51 2-4 3 5 2-3 3 4 2-5 3 3 2-2 3 4 2-3 3 5 2-4 3 3 2-2 3 4 2-5 3 3 2-4 3 5 2-3 3 4 2-2 3 3" stroke="#ab47bc"/></g><g fill="#ff7043"><rect x="40" y="60" width="15" height="8" rx="1" opacity=".6"/><rect x="58" y="60" width="20" height="8" rx="1" opacity=".6"/><rect x="82" y="60" width="12" height="8" rx="1" opacity=".6"/><rect x="98" y="60" width="25" height="8" rx="1" opacity=".6"/><rect x="127" y="60" width="18" height="8" rx="1" opacity=".6"/><rect x="149" y="60" width="20" height="8" rx="1" opacity=".6"/></g><g fill="#26a69a"><rect x="40" y="73" width="25" height="8" rx="1" opacity=".6"/><rect x="68" y="73" width="18" height="8" rx="1" opacity=".6"/><rect x="90" y="73" width="30" height="8" rx="1" opacity=".6"/><rect x="124" y="73" width="15" height="8" rx="1" opacity=".6"/><rect x="143" y="73" width="26" height="8" rx="1" opacity=".6"/></g></g><line x1="95" x2="95" y1="18" y2="85" opacity=".8" stroke="#7b1fa2"><animate attributeName="x1" dur="8s" repeatCount="indefinite" values="60;150;60"/><animate attributeName="x2" dur="8s" repeatCount="indefinite" values="60;150;60"/></line><rect x="8" y="86" width="60" height="6" rx="1" fill="#1a1a1a"/><rect x="9" y="87" width="35" height="4" rx=".5" fill="#4caf50" opacity=".8"><animate attributeName="width" dur="2s" repeatCount="indefinite" values="35;45;30;40;35"/></rect><rect x="72" y="86" width="60" height="6" rx="1" fill="#1a1a1a"/><rect x="73" y="87" width="40" height="4" rx=".5" fill="#4caf50" opacity=".8"><animate attributeName="width" dur="2.2s" repeatCount="indefinite" values="40;30;45;35;40"/></rect></g><g transform="translate(461.06 30)"><line x1="20" x2="20" y1="60" y2="140" stroke="#616161" stroke-width="3"/><line x1="5" x2="35" y1="140" y2="140" stroke="#616161" stroke-linecap="round" stroke-width="3"/><rect x="14" y="55" width="12" height="8" rx="2" fill="#424242"/><rect x="8" y="15" width="24" height="42" rx="12" fill="#37474f" stroke="#546e7a"/><g opacity=".4" stroke="#546e7a" stroke-width=".5"><line x1="10" x2="30" y1="20" y2="20"/><line x1="10" x2="30" y1="24" y2="24"/><line x1="10" x2="30" y1="28" y2="28"/><line x1="10" x2="30" y1="32" y2="32"/><line x1="10" x2="30" y1="36" y2="36"/><line x1="10" x2="30" y1="40" y2="40"/><line x1="10" x2="30" y1="44" y2="44"/><line x1="10" x2="30" y1="48" y2="48"/></g><rect x="12" y="52" width="16" height="3" rx="1" fill="#7b1fa2" opacity=".6"><animate attributeName="opacity" dur="2s" repeatCount="indefinite" values="0.6;1;0.6"/></rect></g><g transform="translate(-118,20)" fill="#7b1fa2"><g opacity=".6"><circle cx="570" cy="50" r="5"/><line x1="575" x2="575" y1="50" y2="25" stroke="#7b1fa2" stroke-linecap="round" stroke-width="2"/><path d="m575 25q7-3 5 5" fill="#7b1fa2"/><animateTransform attributeName="transform" dur="5s" repeatCount="indefinite" type="translate" values="0,0;5,-15;10,-30;15,-15;0,0"/><animate attributeName="opacity" dur="5s" repeatCount="indefinite" values="0.6;0.8;0.4;0.6"/></g><g opacity=".4"><circle cx="610" cy="80" r="4"/><line x1="614" x2="614" y1="80" y2="58" stroke="#7b1fa2" stroke-linecap="round" stroke-width="1.5"/><path d="m614 58q6-3 4 5" fill="#7b1fa2"/><animateTransform attributeName="transform" dur="6s" repeatCount="indefinite" type="translate" values="0,0;-8,-20;-3,-35;5,-20;0,0"/><animate attributeName="opacity" dur="6s" repeatCount="indefinite" values="0.4;0.7;0.3;0.4"/></g><g opacity=".5"><circle cx="580" cy="120" r="4.5"/><circle cx="595" cy="118" r="4.5"/><g stroke="#7b1fa2" stroke-linecap="round"><line x1="584.5" x2="584.5" y1="120" y2="95" stroke-width="1.5"/><line x1="599.5" x2="599.5" y1="118" y2="93" stroke-width="1.5"/><line x1="584.5" x2="599.5" y1="95" y2="93" stroke-width="2"/></g><animateTransform attributeName="transform" dur="7s" repeatCount="indefinite" type="translate" values="0,0;10,-10;20,-25;10,-10;0,0"/><animate attributeName="opacity" dur="7s" repeatCount="indefinite" values="0.5;0.7;0.3;0.5"/></g><g opacity=".35"><circle cx="630" cy="45" r="3.5"/><line x1="633.5" x2="633.5" y1="45" y2="25" stroke="#7b1fa2" stroke-linecap="round" stroke-width="1.5"/><path d="m633.5 25q5.5-3 3.5 4" fill="#7b1fa2"/><animateTransform attributeName="transform" dur="5.5s" repeatCount="indefinite" type="translate" values="0,0;-5,-12;0,-28;5,-12;0,0"/><animate attributeName="opacity" dur="5.5s" repeatCount="indefinite" values="0.35;0.6;0.2;0.35"/></g></g><g transform="translate(-99.405 -2.1346)"><g fill="#fff" stroke="#000" stroke-linecap="round" stroke-linejoin="round" stroke-width=".5"><rect x="289.76" y="146.69" width="6.8116" height="35.532" rx=".49658" stop-color="#000000" style="paint-order:markers fill stroke"/><rect x="296.98" y="146.69" width="6.8116" height="35.532" rx=".49658" stop-color="#000000" style="paint-order:markers fill stroke"/><rect x="304.23" y="146.69" width="6.8116" height="35.532" rx=".49658" stop-color="#000000" style="paint-order:markers fill stroke"/><rect x="311.48" y="146.69" width="6.8116" height="35.532" rx=".49658" stop-color="#000000" style="paint-order:markers fill stroke"/><rect x="318.73" y="146.69" width="6.8116" height="35.532" rx=".49658" stop-color="#000000" style="paint-order:markers fill stroke"/><rect x="325.97" y="146.69" width="6.8116" height="35.532" rx=".49658" stop-color="#000000" style="paint-order:markers fill stroke"/><rect x="333.22" y="146.69" width="6.8116" height="35.532" rx=".49658" stop-color="#000000" style="paint-order:markers fill stroke"/><rect x="340.47" y="146.69" width="6.8116" height="35.532" rx=".49658" stop-color="#000000" style="paint-order:markers fill stroke"/><rect x="347.72" y="146.69" width="6.8116" height="35.532" rx=".49658" stop-color="#000000" style="paint-order:markers fill stroke"/><rect x="354.97" y="146.69" width="6.8116" height="35.532" rx=".49658" stop-color="#000000" style="paint-order:markers fill stroke"/><rect x="362.22" y="146.69" width="6.8116" height="35.532" rx=".49658" stop-color="#000000" style="paint-order:markers fill stroke"/><rect x="369.46" y="146.69" width="6.8116" height="35.532" rx=".49658" stop-color="#000000" style="paint-order:markers fill stroke"/><rect x="376.71" y="146.69" width="6.8116" height="35.532" rx=".49658" stop-color="#000000" style="paint-order:markers fill stroke"/><rect x="383.96" y="146.69" width="6.8116" height="35.532" rx=".49658" stop-color="#000000" style="paint-order:markers fill stroke"/><rect x="391.21" y="146.69" width="6.8116" height="35.532" rx=".49658" stop-color="#000000" style="paint-order:markers fill stroke"/><rect x="398.46" y="146.69" width="6.8116" height="35.532" rx=".49658" stop-color="#000000" style="paint-order:markers fill stroke"/><rect x="405.71" y="146.69" width="6.8116" height="35.532" rx=".49658" stop-color="#000000" style="paint-order:markers fill stroke"/><rect x="412.95" y="146.69" width="6.8116" height="35.532" rx=".49658" stop-color="#000000" style="paint-order:markers fill stroke"/><rect x="420.2" y="146.69" width="6.8116" height="35.532" rx=".49658" stop-color="#000000" style="paint-order:markers fill stroke"/><rect x="427.45" y="146.69" width="6.8116" height="35.532" rx=".49658" stop-color="#000000" style="paint-order:markers fill stroke"/><rect x="434.7" y="146.69" width="6.8116" height="35.532" rx=".49658" stop-color="#000000" style="paint-order:markers fill stroke"/><rect x="441.95" y="146.69" width="6.8116" height="35.532" rx=".49658" stop-color="#000000" style="paint-order:markers fill stroke"/><rect x="449.2" y="146.69" width="6.8116" height="35.532" rx=".49658" stop-color="#000000" style="paint-order:markers fill stroke"/><rect x="456.44" y="146.69" width="6.8116" height="35.532" rx=".49658" stop-color="#000000" style="paint-order:markers fill stroke"/><rect x="463.69" y="146.69" width="6.8116" height="35.532" rx=".49658" stop-color="#000000" style="paint-order:markers fill stroke"/><rect x="470.94" y="146.69" width="6.8116" height="35.532" rx=".49658" stop-color="#000000" style="paint-order:markers fill stroke"/><rect x="478.19" y="146.69" width="6.8116" height="35.532" rx=".49658" stop-color="#000000" style="paint-order:markers fill stroke"/></g><g><g stroke="#000" stroke-linecap="round" stroke-linejoin="round" stroke-width=".5"><rect x="294.37" y="146.66" width="5.0214" height="20.971" rx=".36421" stop-color="#000000" style="paint-order:markers fill stroke"/><rect x="301.59" y="146.66" width="5.0214" height="20.971" rx=".36421" stop-color="#000000" style="paint-order:markers fill stroke"/><rect x="316.08" y="146.66" width="5.0214" height="20.971" rx=".36421" stop-color="#000000" style="paint-order:markers fill stroke"/><rect x="323.33" y="146.66" width="5.0214" height="20.971" rx=".36421" stop-color="#000000" style="paint-order:markers fill stroke"/><rect x="330.58" y="146.66" width="5.0214" height="20.971" rx=".36421" stop-color="#000000" style="paint-order:markers fill stroke"/><rect x="345.08" y="146.66" width="5.0214" height="20.971" rx=".36421" stop-color="#000000" style="paint-order:markers fill stroke"/><rect x="352.33" y="146.66" width="5.0214" height="20.971" rx=".36421" stop-color="#000000" style="paint-order:markers fill stroke"/><rect x="366.82" y="146.66" width="5.0214" height="20.971" rx=".36421" stop-color="#000000" style="paint-order:markers fill stroke"/><rect x="374.07" y="146.66" width="5.0214" height="20.971" rx=".36421" stop-color="#000000" style="paint-order:markers fill stroke"/><rect x="381.32" y="146.66" width="5.0214" height="20.971" rx=".36421" stop-color="#000000" style="paint-order:markers fill stroke"/><rect x="395.82" y="146.66" width="5.0214" height="20.971" rx=".36421" stop-color="#000000" style="paint-order:markers fill stroke"/><rect x="403.06" y="146.66" width="5.0214" height="20.971" rx=".36421" stop-color="#000000" style="paint-order:markers fill stroke"/><rect x="417.56" y="146.66" width="5.0214" height="20.971" rx=".36421" stop-color="#000000" style="paint-order:markers fill stroke"/><rect x="424.81" y="146.66" width="5.0214" height="20.971" rx=".36421" stop-color="#000000" style="paint-order:markers fill stroke"/><rect x="432.06" y="146.66" width="5.0214" height="20.971" rx=".36421" stop-color="#000000" style="paint-order:markers fill stroke"/></g><rect x="446.55" y="146.66" width="5.0214" height="20.971" rx=".36421" stop-color="#000000" style="paint-order:markers fill stroke"/><rect x="453.8" y="146.66" width="5.0214" height="20.971" rx=".36421" stop-color="#000000" style="paint-order:markers fill stroke"/><rect x="468.3" y="146.66" width="5.0214" height="20.971" rx=".36421" stop-color="#000000" style="paint-order:markers fill stroke"/></g><g fill="#fff" stroke="#000" stroke-linecap="round" stroke-linejoin="round" stroke-width=".5"><rect x="441.95" y="146.69" width="6.8116" height="35.532" rx=".49658" stop-color="#000000" style="paint-order:markers fill stroke"/><rect x="449.2" y="146.69" width="6.8116" height="35.532" rx=".49658" stop-color="#000000" style="paint-order:markers fill stroke"/><rect x="456.44" y="146.69" width="6.8116" height="35.532" rx=".49658" stop-color="#000000" style="paint-order:markers fill stroke"/><rect x="463.69" y="146.69" width="6.8116" height="35.532" rx=".49658" stop-color="#000000" style="paint-order:markers fill stroke"/><rect x="470.94" y="146.69" width="6.8116" height="35.532" rx=".49658" stop-color="#000000" style="paint-order:markers fill stroke"/></g><g stroke="#000" stroke-linecap="round" stroke-linejoin="round" stroke-width=".5"><rect x="446.55" y="146.66" width="5.0214" height="20.971" rx=".36421" stop-color="#000000" style="paint-order:markers fill stroke"/><rect x="453.8" y="146.66" width="5.0214" height="20.971" rx=".36421" stop-color="#000000" style="paint-order:markers fill stroke"/><rect x="468.3" y="146.66" width="5.0214" height="20.971" rx=".36421" stop-color="#000000" style="paint-order:markers fill stroke"/></g><g fill="#fff" stroke="#000" stroke-linecap="round" stroke-linejoin="round" stroke-width=".5"><rect x="485.45" y="146.69" width="6.8116" height="35.532" rx=".49658" stop-color="#000000" style="paint-order:markers fill stroke"/><rect x="492.7" y="146.69" width="6.8116" height="35.532" rx=".49658" stop-color="#000000" style="paint-order:markers fill stroke"/><rect x="499.94" y="146.69" width="6.8116" height="35.532" rx=".49658" stop-color="#000000" style="paint-order:markers fill stroke"/><rect x="507.19" y="146.69" width="6.8116" height="35.532" rx=".49658" stop-color="#000000" style="paint-order:markers fill stroke"/><rect x="514.44" y="146.69" width="6.8116" height="35.532" rx=".49658" stop-color="#000000" style="paint-order:markers fill stroke"/><rect x="521.69" y="146.69" width="6.8116" height="35.532" rx=".49658" stop-color="#000000" style="paint-order:markers fill stroke"/></g><g stroke="#000" stroke-linecap="round" stroke-linejoin="round" stroke-width=".5"><rect x="497.3" y="146.66" width="5.0214" height="20.971" rx=".36421" stop-color="#000000" style="paint-order:markers fill stroke"/><rect x="504.55" y="146.66" width="5.0214" height="20.971" rx=".36421" stop-color="#000000" style="paint-order:markers fill stroke"/><rect x="519.05" y="146.66" width="5.0214" height="20.971" rx=".36421" stop-color="#000000" style="paint-order:markers fill stroke"/><rect x="475.55" y="146.66" width="5.0214" height="20.971" rx=".36421" stop-color="#000000" style="paint-order:markers fill stroke"/><rect x="482.8" y="146.66" width="5.0214" height="20.971" rx=".36421" stop-color="#000000" style="paint-order:markers fill stroke"/></g></g></svg>
