<?xml version="1.0" encoding="UTF-8"?>
<svg version="1.1" viewBox="0 0 800 220" xmlns="http://www.w3.org/2000/svg">
 <defs>
  <linearGradient id="contactBg" y2="1">
   <stop stop-color="#E8F6FD" offset="0"/>
   <stop stop-color="#FFF9E8" offset="1"/>
  </linearGradient>
 </defs>
 <rect width="800" height="220" rx="16" fill="url(#contactBg)"/>
 <g transform="translate(120 75)">
  <circle r="38" fill="#fff" stroke="#C4A95A" stroke-width="2"/>
  <circle r="32" fill="#FFF9E8"/>
  <rect x="-16" y="-8" width="32" height="22" rx="2" fill="none" stroke="#D4A017" stroke-width="2"/>
  <path d="m-16-8 16 14 16-14" fill="none" stroke="#D4A017" stroke-width="2"/>
  <circle cx="18" cy="-18" r="3" fill="#FFF176" opacity=".6">
   <animate attributeName="opacity" dur="2s" repeatCount="indefinite" values="0.6;1;0.6"/>
  </circle>
  <text y="58" fill="#2C3E50" font-family="'Inter', sans-serif" font-size="12" font-weight="600" text-anchor="middle">1. Reach Out</text>
 </g>
 <g transform="translate(210 75)" opacity=".4">
  <line x1="-52" x2="60" stroke="#c4a95a" stroke-width="2.0148"/>
  <polygon points="60 -5 72 0 60 5" fill="#C4A95A"/>
 </g>
 <g transform="translate(320 75)">
  <circle r="38" fill="#fff" stroke="#C4A95A" stroke-width="2"/>
  <circle r="32" fill="#FFF9E8"/>
  <rect x="-18" y="-14" width="22" height="14" rx="4" fill="#4CAF50" opacity=".7"/>
  <polygon points="-14 0 -10 0 -14 6" fill="#4CAF50" opacity=".7"/>
  <rect x="-2" y="-4" width="20" height="12" rx="4" fill="#1976D2" opacity=".7"/>
  <polygon points="12 8 16 8 12 14" fill="#1976D2" opacity=".7"/>
  <g fill="#fff">
   <circle cx="-11" cy="-7" r="1.5"/>
   <circle cx="-7" cy="-7" r="1.5"/>
   <circle cx="-3" cy="-7" r="1.5"/>
   <circle cx="5" cy="2" r="1.5"/>
   <circle cx="9" cy="2" r="1.5"/>
   <circle cx="13" cy="2" r="1.5"/>
  </g>
  <text y="58" fill="#2c3e50" font-family="Inter, sans-serif" font-size="12px" font-weight="600" text-anchor="middle">2. Chat</text>
 </g>
 <g transform="translate(410 75)" opacity=".4">
  <line x1="-52" x2="60" stroke="#c4a95a" stroke-width="2"/>
  <polygon points="60 -5 72 0 60 5" fill="#C4A95A"/>
 </g>
 <g transform="translate(520 75)">
  <circle r="38" fill="#fff" stroke="#C4A95A" stroke-width="2"/>
  <circle r="32" fill="#FFF9E8"/>
  <ellipse cy="5" rx="22" ry="8" fill="#8B7355" opacity=".6"/>
  <ellipse cy="2" rx="10" ry="4" fill="#fff" stroke="#DDD"/>
  <circle cx="-12" cy="-12" r="5" fill="#D4B96A"/>
  <rect x="-15" y="-7" width="6" height="10" rx="2" fill="#2E7D32"/>
  <circle cx="12" cy="-12" r="5" fill="#D4B96A"/>
  <rect x="9" y="-7" width="6" height="10" rx="2" fill="#1976D2"/>
  <circle cy="-16" r="4" fill="#D4B96A"/>
  <rect x="-2" y="-12" width="4" height="8" rx="1.5" fill="#7B1FA2"/>
  <text y="58" fill="#2c3e50" font-family="Inter, sans-serif" font-size="12px" font-weight="600" text-anchor="middle">3. Meeting</text>
 </g>
 <g transform="translate(610 75)" opacity=".4">
  <line x1="-52" x2="60" stroke="#c4a95a" stroke-width="2"/>
  <polygon points="60 -5 72 0 60 5" fill="#C4A95A"/>
 </g>
 <g transform="translate(720 75)">
  <circle r="38" fill="#fff" stroke="#D4A017" stroke-width="3"/>
  <circle r="32" fill="#FFF3D4"/>
  <path d="m0-14q-7 9-5 20h10q2-11-5-20z" fill="#D4A017"/>
  <circle cy="-4" r="3" fill="#FFF9E8"/>
  <rect transform="rotate(-12 -5 8)" x="-7" y="6" width="3" height="5" rx="1" fill="#FF8F00"/>
  <rect transform="rotate(12 5 8)" x="4" y="6" width="3" height="5" rx="1" fill="#FF8F00"/>
  <path d="m-3 11q3 7 6 0" fill="#FF5252" opacity=".8">
   <animate attributeName="d" dur="0.5s" repeatCount="indefinite" values="M-3 11 Q0 18 3 11;M-3 11 Q0 22 3 11;M-3 11 Q0 18 3 11"/>
  </path>
  <circle cx="-14" cy="-14" r="2" fill="#FFF176" opacity=".5">
   <animate attributeName="opacity" dur="1.5s" repeatCount="indefinite" values="0.5;1;0.5"/>
  </circle>
  <circle cx="16" cy="-16" r="1.5" fill="#FFF176" opacity=".4">
   <animate attributeName="opacity" dur="2s" repeatCount="indefinite" values="0.4;0.9;0.4"/>
  </circle>
  <text y="58" fill="#2C3E50" font-family="'Inter', sans-serif" font-size="12" font-weight="600" text-anchor="middle">4. Launch!</text>
 </g>
 <text x="400" y="200" fill="#2C3E50" font-family="'Playfair Display', serif" font-size="15" font-weight="600" text-anchor="middle">Four simple steps to a life-changing mentorship</text>
</svg>
