<?xml version="1.0" encoding="UTF-8"?>
<svg version="1.1" viewBox="0 0 500 400" xmlns="http://www.w3.org/2000/svg">
 <rect x="80" y="220" width="340" height="12" rx="4" fill="#8B7355"/>
 <rect x="100" y="232" width="12" height="80" rx="2" fill="#7A6245"/>
 <rect x="388" y="232" width="12" height="80" rx="2" fill="#7A6245"/>
 <rect x="159.56" y="170" width="80.889" height="50" rx="2.3111" fill="#444" stroke-width=".76012"/>
 <rect x="162.44" y="175" width="75.111" height="40" rx="1.1556" fill="#85c3e8" stroke-width=".76012"/>
 <rect x="172" y="182" width="40" height="3" rx="1" fill="#4CAF50"/>
 <rect x="172" y="189" width="55" height="3" rx="1" fill="#FFF176"/>
 <rect x="172" y="196" width="35" height="3" rx="1" fill="#F48FB1"/>
 <rect x="172" y="203" width="50" height="3" rx="1" fill="#4CAF50"/>
 <rect x="148" y="220" width="104" height="6" rx="1.1556" fill="#555" stroke-width=".76012"/>
 <g transform="matrix(1.9171 0 0 1.9171 228.74 247.12)">
  <ellipse cx="10" cy="14" rx="10" ry="8" fill="#d4b96a"/>
  <ellipse cx="10" cy="26" rx="13" ry="10" fill="#d4b96a"/>
  <rect x="8.4237" y="-15" width="3" height="25" rx=".5" fill="#8b7355"/>
  <circle cx="10" cy="17" r="3.5" fill="#5c3a1e"/>
  <line x1="9.4237" x2="9.4237" y1="-14" y2="28" opacity=".5" stroke="#d4b96a" stroke-width=".3"/>
  <line x1="10.397" x2="10.397" y1="-14" y2="28" opacity=".5" stroke="#d4b96a" stroke-width=".3"/>
  <rect x="7.7678" y="-19.493" width="4.3315" height="5.4265" rx=".8663" fill="#6b5035" stroke-width=".54202"/>
 </g>
 <rect x="320" y="190" width="50" height="35" rx="3" fill="#008884"/>
 <rect x="325" y="195" width="17.524" height="11.816" rx="2.1905" fill="#333" stroke-width="2.0769"/>
 <circle cx="360" cy="210" r="3" fill="#ff5252"/>
 <circle cx="352" cy="210" r="3" fill="#4caf50"/>
 <rect x="101" y="195" width="30" height="30" rx="3" fill="#d4b96a"/>
 <g fill="none" stroke-linecap="round">
  <path d="m131 201q10 0 10 10t-10 10" stroke="#d4b96a" stroke-width="3"/>
  <g stroke="#aaa" stroke-width="1.5">
   <path d="m107 195c3-5-3-7 0.6-13" opacity=".5">
    <animate attributeName="d" dur="3s" repeatCount="indefinite" values="m107 195c3-5-3-7 0.6-13;m 107,195 c -3.8,-5.3 3.4,-7.4 0.6,-13;m107 195c3-5-3-7 0.6-13"/>
   </path>
   <path d="m115.27 195c3-5-3-7 0.6-13" opacity=".5">
    <animate attributeName="d" dur="3s" repeatCount="indefinite" values="m115.27 195c3-5-3-7 0.6-13;m 115.27,195 c -3.8,-5.3 3.4,-7.4 0.6,-13;m115.27 195c3-5-3-7 0.6-13"/>
   </path>
   <path d="m123.27 195c3-5-3-7 0.6-13" opacity=".5">
    <animate attributeName="d" dur="3s" repeatCount="indefinite" values="m123.27 195c3-5-3-7 0.6-13;m 123.27,195 c -3.8,-5.3 3.4,-7.4 0.6,-13;m123.27 195c3-5-3-7 0.6-13"/>
   </path>
  </g>
 </g>
 <polygon transform="translate(-10,14)" points="390 192 410 192 415 210 385 210" fill="#ff8f00"/>
 <polygon transform="translate(-10,14)" points="390 192 400 180 410 192" fill="#ffb74d"/>
 <rect x="260" y="221" width="20" height="7.7166" rx="2" fill="#1976d2" stroke-width=".55558"/>
 <rect x="266.32" y="223.5" width="5.68" height="2" rx=".355" fill="#482f04" stroke-width=".59582"/>
 <rect x="260.06" y="222.61" width="2.4442" height="2" rx=".15276" fill="#482f04" stroke-width=".39085"/>
 <g fill="#fef5e5">
  <rect x="263.11" y="226.27" width="3.839" height="2" rx=".23994" stroke-width=".48983"/>
  <rect x="268.2" y="226.27" width="3.839" height="2" rx=".23994" stroke-width=".48983"/>
  <rect x="281.84" y="223.38" width="22.297" height="3.6479" rx="1.3935" stroke-width="1.5943"/>
 </g>
 <rect x="275.21" y="221.48" width="2.9811" height="6.2575" rx=".18632" fill="#053257" stroke-width=".76351"/>
 <line x1="313.44" x2="316.75" y1="212.64" y2="183.68" stroke="#888" stroke-linecap="round" stroke-width="3"/>
 <circle transform="rotate(-24.453)" cx="197.13" cy="323.27" r="2" fill="#ff5252">
  <animate attributeName="opacity" dur="2s" repeatCount="indefinite" values="1;0.4;1"/>
 </circle>
 <text x="250" y="350" fill="#2C3E50" font-family="'Playfair Display', serif" font-size="20" font-weight="600" text-anchor="middle">Where curiosity meets mastery</text>
 <text x="250" y="375" fill="#6B6B6B" font-family="'Lora', serif" font-size="13" font-style="italic" text-anchor="middle">Tech • Making • Music • Life Skills</text>
 <rect x="252" y="223.3" width="8.0582" height=".61443" rx=".15276" stop-color="#000000" stroke-linecap="round" stroke-linejoin="round" stroke-width="1.678"/>
 <g fill="none" stroke-linecap="round" stroke-width=".5">
  <path d="m277.39 223.01c3.797-8.6327 6.1299-4.7494 8.0578 1.2566" stroke="#00a123"/>
  <path d="m276.42 222.39c5.2173-14.419 8.7525-3.9662 12.573 2.5892" stroke="#acab00"/>
  <path d="m276.26 225.25c5.2057-19.815 10.187-11.247 15.106-1.0178" stroke="#000"/>
  <path d="m276.39 223.73c8.3734-16.659 16.192-6.492 21.001 0.96689" stroke="#a00000"/>
  <path d="m277.02 226.57c11.587-21.38 20.957-12.771 24.636-2.1485" stroke="#080087"/>
 </g>
 <g stroke-width=".33657">
  <rect x="286.1" y="224.11" width="1.8125" height="2" rx=".11328" fill="#ecd80d"/>
  <rect x="298.59" y="224.02" width="1.8125" height="2" rx=".11328" fill="#2218f2"/>
  <rect x="292.89" y="224.09" width="1.8125" height="2" rx=".11328" fill="#f21818"/>
 </g>
 <rect x="181.51" y="266.3" width="6.7017" height="37.599" rx="2.0034" fill="#656565" stop-color="#000000"/>
 <rect x="158.82" y="259.53" width="53.231" height="9.1126" rx="2.0034" stop-color="#000000"/>
 <rect x="156.25" y="226.04" width="26.361" height="19.136" rx="2.0034" stop-color="#000000"/>
 <rect x="165.56" y="235.22" width="6.7017" height="27.825" rx="2.0034" fill="#656565" stop-color="#000000"/>
 <rect x="165.17" y="301.64" width="41.234" height="5.026" rx="2.0034" fill="#656565" stop-color="#000000"/>
 <ellipse cx="170.64" cy="310.71" rx="4.3132" ry="4.2196" stop-color="#000000"/>
 <ellipse cx="186.42" cy="310.71" rx="4.3132" ry="4.2196" stop-color="#000000"/>
 <ellipse cx="202.36" cy="310.73" rx="4.3132" ry="4.2196" stop-color="#000000"/>
 <g transform="translate(0,78)" fill="#fff176">
  <polygon transform="translate(-22.638 -40.921)" points="253 140 263 140 255 146 258 156 250 150 242 156 245 146 237 140 247 140 250 130">
   <animate attributeName="opacity" dur="1s" repeatCount="indefinite" values="0.6;1;0.6"/>
  </polygon>
  <polygon transform="matrix(.7 0 0 .7 190.61 -8.2223)" points="172 126 178 126 173 130 175 136 170 132 165 136 167 130 162 126 168 126 170 120" transform-origin="170 128">
   <animate attributeName="opacity" dur="1.2s" repeatCount="indefinite" values="0.4;0.9;0.4"/>
  </polygon>
  <polygon transform="matrix(.8 0 0 .8 -75.886 -5.9862)" points="345 156 347 150 342 146 348 146 350 140 352 146 358 146 353 150 355 156 350 152" transform-origin="350 148">
   <animate attributeName="opacity" dur="0.9s" repeatCount="indefinite" values="0.5;1;0.5"/>
  </polygon>
  <polygon transform="matrix(.7 0 0 .7 79.69 21.214)" points="170 120 172 126 178 126 173 130 175 136 170 132 165 136 167 130 162 126 168 126" transform-origin="170 128">
   <animate attributeName="opacity" dur="1.1s" repeatCount="indefinite" values="0.4;0.9;0.4"/>
  </polygon>
 </g>
 <rect x="310.61" y="194.54" width="10.066" height="8.6666" rx="2.1905" stop-color="#000000"/>
</svg>
