<?xml version="1.0" encoding="UTF-8"?>
<svg version="1.1" viewBox="0 0 800 180" xmlns="http://www.w3.org/2000/svg">
 <defs>
  <linearGradient id="dirBg" y2="1">
   <stop stop-color="#E8F6FD" offset="0"/>
   <stop stop-color="#FFF9E8" offset="1"/>
  </linearGradient>
 </defs>
 <rect width="800" height="180" rx="16" fill="url(#dirBg)"/>
 <line x1="130" x2="690" y1="70" y2="70" opacity=".4" stroke="#E8DCC0" stroke-dasharray="6,4" stroke-width="1.5"/>
 <g transform="translate(90 70)">
  <circle r="35" fill="#E3F2FD" stroke="#1976D2" stroke-width="2"/>
  <rect x="-16" y="-12" width="32" height="22" rx="3" fill="#1976D2"/>
  <rect x="-13" y="-9" width="26" height="16" rx="1" fill="#85C3E8"/>
  <rect x="-9" y="-5" width="10" height="2" rx="1" fill="#4CAF50"/>
  <rect x="-9" y="-1" width="14" height="2" rx="1" fill="#FFF176"/>
  <rect x="-9" y="3" width="8" height="2" rx="1" fill="#F48FB1"/>
  <rect x="-8" y="10" width="16" height="3" rx="1" fill="#1565C0"/>
  <text y="52" fill="#1976D2" font-family="'Inter', sans-serif" font-size="11" font-weight="600" text-anchor="middle">Tech</text>
 </g>
 <g transform="translate(250 70)">
  <g stroke="#E65100">
   <circle r="35" fill="#FFF3E0" stroke-width="2"/>
   <rect x="-14" y="-14" width="28" height="28" rx="3" fill="none" stroke-width="2"/>
   <g stroke-dasharray="3,2">
    <line x1="-10" x2="-10" y1="-14" y2="14"/>
    <line y1="-14" y2="14"/>
    <line x1="10" x2="10" y1="-14" y2="14"/>
   </g>
  </g>
  <polygon points="-5 2 0 -8 5 2 3 10 -3 10" fill="#FF8F00" opacity=".7"/>
  <text y="52" fill="#E65100" font-family="'Inter', sans-serif" font-size="11" font-weight="600" text-anchor="middle">Making</text>
 </g>
 <g transform="translate(410 70)">
  <circle r="35" fill="#E8F5E9" stroke="#2E7D32" stroke-width="2"/>
  <rect x="-12" y="-2" width="24" height="18" rx="1" fill="#2E7D32" opacity=".8"/>
  <polygon points="-16 -2 0 -16 16 -2" fill="#4CAF50"/>
  <rect x="-4" y="6" width="8" height="10" rx="1" fill="#FFF9E8"/>
  <circle cx="10" cy="-8" r="5" fill="none" stroke="#2E7D32" stroke-width="1.5"/>
  <circle cx="10" cy="-8" r="2" fill="#2E7D32"/>
  <text y="52" fill="#2E7D32" font-family="'Inter', sans-serif" font-size="11" font-weight="600" text-anchor="middle">Home</text>
 </g>
 <g transform="translate(570 70)">
  <circle r="35" fill="#F3E5F5" stroke="#7B1FA2" stroke-width="2"/>
  <ellipse cx="-2" cy="5" rx="10" ry="14" fill="#8B6D4F"/>
  <ellipse cx="-2" cy="5" rx="3" ry="4" fill="#3E2F20"/>
  <rect x="-3" y="-18" width="4" height="20" rx="1" fill="#A0845C"/>
  <rect x="-5" y="-20" width="8" height="4" rx="1" fill="#6B5035"/>
  <g stroke="#CCC" stroke-width=".3">
   <line x1="-1" x2="-1" y1="-16" y2="15"/>
   <line y1="-16" y2="15"/>
   <line x1="-2" x2="-2" y1="-16" y2="15"/>
  </g>
  <g fill="#7B1FA2" opacity=".6">
   <circle cx="14" cy="-10" r="3"/>
   <line x1="17" x2="17" y1="-10" y2="-20" stroke="#7B1FA2" stroke-width="1.5"/>
   <circle cx="20" cy="-4" r="2.5"/>
   <line x1="22.5" x2="22.5" y1="-4" y2="-14" stroke="#7B1FA2" stroke-width="1.5"/>
  </g>
  <text y="52" fill="#7B1FA2" font-family="'Inter', sans-serif" font-size="11" font-weight="600" text-anchor="middle">Music</text>
 </g>
 <g transform="translate(730 70)">
  <circle r="35" fill="#E0F2F1" stroke="#00695C" stroke-width="2"/>
  <path d="m0-16q-8 11-6 24h12q2-13-6-24z" fill="#00695C"/>
  <circle cy="-5" r="3" fill="#E0F2F1"/>
  <rect transform="rotate(-15 -6 10)" x="-8" y="8" width="4" height="5" rx="1" fill="#FF8F00"/>
  <rect transform="rotate(15 6 10)" x="4" y="8" width="4" height="5" rx="1" fill="#FF8F00"/>
  <path d="m-3 13q3 7 6 0" fill="#FF5252" opacity=".8">
   <animate attributeName="d" dur="0.5s" repeatCount="indefinite" values="M-3 13 Q0 20 3 13;M-3 13 Q0 22 3 13;M-3 13 Q0 20 3 13"/>
  </path>
  <text y="52" fill="#00695C" font-family="'Inter', sans-serif" font-size="11" font-weight="600" text-anchor="middle">Adventure</text>
 </g>
 <text x="400" y="160" fill="#2C3E50" font-family="'Playfair Display', serif" font-size="15" font-weight="600" text-anchor="middle">Five directions, infinite combinations</text>
</svg>
