<?xml version="1.0" encoding="UTF-8"?>
<svg version="1.1" viewBox="0 0 800 240" xmlns="http://www.w3.org/2000/svg">
 <defs>
  <linearGradient id="priceBg" y2="1">
   <stop stop-color="#FFF9E8" offset="0"/>
   <stop stop-color="#E8F6FD" offset="1"/>
  </linearGradient>
 </defs>
 <rect width="800" height="240" rx="16" fill="url(#priceBg)"/>
 <g transform="translate(200,30)">
  <rect x="-80" y="10" width="160" height="120" rx="12" fill="#fff" stroke="#c4a95a" stroke-width="2"/>
  <rect x="-49.18" y="72.375" width="99.204" height="16.893" rx="2.1905" fill="#007f07" stop-color="#000000" stroke-linecap="round" stroke-linejoin="round" stroke-width=".5"/>
  <rect x="-30" y="40" width="60" height="45" rx="2" fill="#d4b96a"/>
  <polygon points="38 40 -38 40 0 18" fill="#7a5c3e"/>
  <rect x="-50" y="85" width="100" height="18" rx="4" fill="#5a9fca"/>
  <circle cx="45" cy="25" r="8" fill="#fff176" opacity=".6"/>
  <line x1="-42" x2="-40" y1="83" y2="48" stroke="#8b7355" stroke-linecap="round" stroke-width="3"/>
  <path d="m-40 48q-12-8-24 2" fill="#43a047" stroke="#2e7d32" stroke-width="1.5">
   <animateTransform attributeName="transform" dur="4s" repeatCount="indefinite" type="rotate" values="0,-48,50;2,-48,50;-1,-48,50;0,-48,50"/>
  </path>
  <path d="m-40 48q10-12 20-2" fill="#43a047" stroke="#2e7d32" stroke-width="1.5">
   <animateTransform attributeName="transform" dur="5s" repeatCount="indefinite" type="rotate" values="0,-48,50;-2,-48,50;1,-48,50;0,-48,50"/>
  </path>
  <text y="150" fill="#2c3e50" font-family="'Playfair Display', serif" font-size="14px" font-weight="600" text-anchor="middle">In-Person</text>
  <text y="168" fill="#d4a017" font-family="Inter, sans-serif" font-size="18px" font-weight="700" text-anchor="middle">$600/day</text>
 </g>
 <g transform="translate(600,30)">
  <rect x="-80" y="10" width="160" height="120" rx="12" fill="#fff" stroke="#1976d2" stroke-width="2"/>
  <rect x="-40" y="37" width="80" height="55" rx="4" fill="#333"/>
  <rect x="-36" y="41" width="72" height="47" rx="2" fill="#85c3e8"/>
  <circle cx="-15" cy="68" r="10" fill="#f5edd6"/>
  <circle cx="-18" cy="66" r="1.5" fill="#555"/>
  <circle cx="-12" cy="66" r="1.5" fill="#555"/>
  <path d="m-18 71q3 3 6 0" fill="none" stroke="#555"/>
  <circle cx="15" cy="68" r="10" fill="#f5edd6"/>
  <circle cx="12" cy="66" r="1.5" fill="#555"/>
  <circle cx="18" cy="66" r="1.5" fill="#555"/>
  <path d="m12 71q3 3 6 0" fill="none" stroke="#555"/>
  <line y1="44" y2="85" opacity=".5" stroke="#4a8ab8"/>
  <rect x="-32" y="48" width="20" height="2" rx="1" fill="#4caf50" opacity=".4"/>
  <rect x="-32" y="52" width="14" height="2" rx="1" fill="#fff176" opacity=".4"/>
  <rect x="12" y="48" width="20" height="2" rx="1" fill="#f48fb1" opacity=".4"/>
  <rect x="12" y="52" width="14" height="2" rx="1" fill="#4caf50" opacity=".4"/>
  <rect x="-8" y="92" width="16" height="6" rx="1" fill="#444"/>
  <rect x="-20" y="98" width="40" height="4" rx="2" fill="#555"/>
  <text y="150" fill="#2c3e50" font-family="'Playfair Display', serif" font-size="14px" font-weight="600" text-anchor="middle">Online</text>
  <text y="168" fill="#1976d2" font-family="Inter, sans-serif" font-size="18px" font-weight="700" text-anchor="middle">$200/session</text>
 </g>
 <g transform="translate(400,100)">
  <circle r="20" fill="#fff" stroke="#e8dcc0" stroke-width="2"/>
  <text y="5" fill="#6b6b6b" font-family="'Playfair Display', serif" font-size="14px" font-weight="600" text-anchor="middle">or</text>
 </g>
 <text x="400" y="225" fill="#6B6B6B" font-family="'Lora', serif" font-size="13" font-style="italic" text-anchor="middle">Two paths, one goal — unlocking your child's potential</text>
</svg>
